<?xml version="1.0" encoding="UTF-8" standalone="no"?>
<!-- Created with Inkscape (http://www.inkscape.org/) -->

<svg
   width="194.44179mm"
   height="149.38515mm"
   viewBox="0 0 194.44179 149.38515"
   version="1.1"
   id="svg1"
   xml:space="preserve"
   xmlns="http://www.w3.org/2000/svg"
   xmlns:svg="http://www.w3.org/2000/svg"><defs
     id="defs1" /><g
     id="layer1"
     transform="translate(-8.5828955,-71.411306)"><path
       style="fill:#ffffff;stroke-width:1.00505"
       d="m 53.187581,220.68709 c 0,-0.0625 -0.324791,-0.10935 -0.757847,-0.10935 -0.433055,0 -0.757846,-0.0469 -0.757846,-0.10937 0,-0.0625 -0.324792,-0.10935 -0.757847,-0.10935 -0.433055,0 -0.757846,-0.0469 -0.757846,-0.10936 0,-0.0602 -0.243594,-0.10936 -0.541319,-0.10936 -0.297726,0 -0.541319,-0.0492 -0.541319,-0.10936 0,-0.0602 -0.194875,-0.10936 -0.433056,-0.10936 -0.23818,0 -0.433055,-0.0492 -0.433055,-0.10936 0,-0.0601 -0.243593,-0.10936 -0.541319,-0.10936 -0.297725,0 -0.541319,-0.0492 -0.541319,-0.10936 0,-0.0601 -0.194875,-0.10936 -0.433055,-0.10936 -0.23818,0 -0.433055,-0.0492 -0.433055,-0.10935 0,-0.0602 -0.243594,-0.10937 -0.541319,-0.10937 -0.297726,0 -0.541319,-0.0492 -0.541319,-0.10936 0,-0.0602 -0.194875,-0.10936 -0.433055,-0.10936 -0.238181,0 -0.433056,-0.0492 -0.433056,-0.10936 0,-0.0601 -0.146156,-0.10935 -0.324791,-0.10935 -0.178635,0 -0.324791,-0.0492 -0.324791,-0.10937 0,-0.0601 -0.243594,-0.10935 -0.541319,-0.10935 -0.297726,0 -0.541319,-0.0492 -0.541319,-0.10936 0,-0.0602 -0.09744,-0.10937 -0.216528,-0.10937 -0.11909,0 -0.216528,-0.0492 -0.216528,-0.10935 0,-0.0601 -0.194874,-0.10937 -0.433055,-0.10937 -0.23818,0 -0.433055,-0.0492 -0.433055,-0.10935 0,-0.0602 -0.146156,-0.10936 -0.324791,-0.10936 -0.178636,0 -0.324792,-0.0492 -0.324792,-0.10936 0,-0.0601 -0.194875,-0.10936 -0.433055,-0.10936 -0.23818,0 -0.433055,-0.0492 -0.433055,-0.10937 0,-0.0601 -0.194875,-0.10935 -0.433055,-0.10935 -0.238181,0 -0.433056,-0.0492 -0.433056,-0.10936 0,-0.0602 -0.09744,-0.10936 -0.216527,-0.10936 -0.11909,0 -0.216528,-0.0492 -0.216528,-0.10936 0,-0.0602 -0.232838,-0.10936 -0.517418,-0.10936 -0.393222,0 -0.55488,-0.0525 -0.673484,-0.21871 -0.116789,-0.16368 -0.280261,-0.21873 -0.649582,-0.21873 -0.369322,0 -0.532793,-0.0551 -0.649583,-0.21872 -0.105753,-0.1482 -0.280262,-0.21872 -0.541319,-0.21872 -0.261058,0 -0.435566,-0.0705 -0.541319,-0.21871 -0.08609,-0.12065 -0.280262,-0.21872 -0.433055,-0.21872 -0.152794,0 -0.346967,-0.0981 -0.433056,-0.21872 -0.08609,-0.12065 -0.280261,-0.21872 -0.433055,-0.21872 -0.152793,0 -0.346967,-0.0981 -0.433055,-0.21872 -0.08583,-0.12029 -0.242746,-0.21872 -0.348692,-0.21872 -0.105945,0 -0.192627,-0.0492 -0.192627,-0.10936 0,-0.0601 -0.07789,-0.10936 -0.173091,-0.10936 -0.0952,0 -0.309621,-0.14764 -0.476492,-0.32808 -0.16687,-0.18044 -0.381291,-0.32807 -0.476491,-0.32807 -0.0952,0 -0.173092,-0.0492 -0.173092,-0.10937 0,-0.0601 -0.09744,-0.10935 -0.216527,-0.10935 -0.11909,0 -0.216528,-0.0492 -0.216528,-0.10936 0,-0.0602 -0.09744,-0.10937 -0.216527,-0.10937 -0.144352,0 -0.216528,-0.0729 -0.216528,-0.21872 0,-0.14581 -0.07218,-0.21871 -0.216528,-0.21871 -0.11909,0 -0.216527,-0.0492 -0.216527,-0.10936 0,-0.0601 -0.09744,-0.10936 -0.216528,-0.10936 -0.11909,0 -0.216527,-0.0492 -0.216527,-0.10937 0,-0.0601 -0.09744,-0.10935 -0.216528,-0.10935 -0.144352,0 -0.216527,-0.0729 -0.216527,-0.21872 0,-0.13676 -0.07218,-0.21872 -0.192628,-0.21872 -0.105945,0 -0.262856,-0.0984 -0.348691,-0.21872 -0.08584,-0.12029 -0.242747,-0.21872 -0.348692,-0.21872 -0.120452,0 -0.192627,-0.0819 -0.192627,-0.21872 0,-0.14581 -0.07218,-0.21872 -0.216528,-0.21872 -0.11909,0 -0.216528,-0.0492 -0.216528,-0.10935 0,-0.0602 -0.07789,-0.10936 -0.173091,-0.10936 -0.0952,0 -0.309621,-0.14764 -0.476491,-0.32809 -0.166871,-0.18044 -0.361746,-0.32807 -0.433056,-0.32807 -0.07131,0 -0.266185,-0.14763 -0.433055,-0.32808 -0.16687,-0.18044 -0.361745,-0.32808 -0.433055,-0.32808 -0.07131,0 -0.266185,-0.14764 -0.433055,-0.32808 -0.166871,-0.18044 -0.361745,-0.32807 -0.433055,-0.32807 -0.07131,0 -0.266185,-0.14764 -0.433056,-0.32808 -0.16687,-0.18045 -0.358214,-0.32809 -0.425209,-0.32809 -0.158602,0 -1.090484,-0.94131 -1.090484,-1.10151 0,-0.0677 -0.146156,-0.26096 -0.324791,-0.42952 -0.178636,-0.16856 -0.324792,-0.36541 -0.324792,-0.43744 0,-0.072 -0.146156,-0.26887 -0.324791,-0.43743 -0.178635,-0.16856 -0.324791,-0.38515 -0.324791,-0.48131 0,-0.10195 -0.09029,-0.17485 -0.216528,-0.17485 -0.16841,0 -0.216528,-0.0729 -0.216528,-0.32808 0,-0.25517 -0.04812,-0.32808 -0.216527,-0.32808 -0.135397,0 -0.216528,-0.0729 -0.216528,-0.19458 0,-0.10701 -0.09744,-0.26551 -0.216527,-0.35222 -0.119091,-0.0867 -0.216528,-0.2452 -0.216528,-0.35222 0,-0.10701 -0.07656,-0.19458 -0.170129,-0.19458 -0.208666,0 -0.479454,-0.25989 -0.479454,-0.46016 0,-0.0812 -0.09744,-0.21865 -0.216527,-0.30535 -0.119091,-0.0867 -0.216528,-0.2452 -0.216528,-0.35223 0,-0.12167 -0.08113,-0.19457 -0.216528,-0.19457 -0.144351,0 -0.216527,-0.0729 -0.216527,-0.21872 0,-0.14581 -0.07218,-0.21872 -0.216528,-0.21872 -0.126239,0 -0.216527,-0.0729 -0.216527,-0.17484 0,-0.0962 -0.146157,-0.31275 -0.324792,-0.48131 -0.178635,-0.16856 -0.324791,-0.36375 -0.324791,-0.43374 0,-0.07 -0.243594,-0.36693 -0.541319,-0.65986 -0.297726,-0.29292 -0.541319,-0.59875 -0.541319,-0.6796 0,-0.0808 -0.09744,-0.21793 -0.216528,-0.30463 -0.11909,-0.0867 -0.216527,-0.23435 -0.216527,-0.32809 0,-0.0937 -0.09744,-0.24137 -0.216528,-0.32807 -0.127153,-0.0925 -0.216528,-0.2831 -0.216528,-0.46158 0,-0.23103 -0.05194,-0.30394 -0.216527,-0.30394 -0.164589,0 -0.216528,-0.0729 -0.216528,-0.30394 0,-0.17848 -0.08937,-0.36901 -0.216527,-0.46157 -0.119091,-0.0867 -0.216528,-0.23434 -0.216528,-0.32808 0,-0.0937 -0.09744,-0.24138 -0.216528,-0.32809 -0.11909,-0.0867 -0.216527,-0.2452 -0.216527,-0.35222 0,-0.10701 -0.04872,-0.19457 -0.108264,-0.19457 -0.05954,0 -0.108264,-0.0984 -0.108264,-0.21872 0,-0.12029 -0.04872,-0.21872 -0.108264,-0.21872 -0.05954,0 -0.108263,-0.14764 -0.108263,-0.32808 0,-0.18044 -0.04872,-0.32807 -0.108264,-0.32807 -0.05954,0 -0.108264,-0.0984 -0.108264,-0.21873 0,-0.12029 -0.04872,-0.21872 -0.108264,-0.21872 -0.05954,0 -0.108264,-0.19684 -0.108264,-0.43743 0,-0.24059 -0.04872,-0.43744 -0.108263,-0.43744 -0.05955,0 -0.108264,-0.0984 -0.108264,-0.21872 0,-0.1203 -0.04872,-0.21872 -0.108264,-0.21872 -0.05954,0 -0.108264,-0.14763 -0.108264,-0.32808 0,-0.18044 -0.04872,-0.32808 -0.108264,-0.32808 -0.05954,0 -0.108263,-0.0984 -0.108263,-0.21872 0,-0.1203 -0.04872,-0.21871 -0.108264,-0.21871 -0.05954,0 -0.108264,-0.14764 -0.108264,-0.32809 0,-0.18044 -0.04872,-0.32808 -0.108264,-0.32808 -0.05954,0 -0.108264,-0.0984 -0.108264,-0.21871 0,-0.12029 -0.04872,-0.21872 -0.108263,-0.21872 -0.05955,0 -0.108264,-0.0984 -0.108264,-0.21872 0,-0.1203 -0.04872,-0.21872 -0.108264,-0.21872 -0.05954,0 -0.108264,-0.0984 -0.108264,-0.21872 0,-0.1203 -0.04872,-0.21871 -0.108264,-0.21871 -0.05954,0 -0.108263,-0.13677 -0.108263,-0.30394 0,-0.17849 -0.08938,-0.36901 -0.216528,-0.46158 -0.127153,-0.0926 -0.216528,-0.2831 -0.216528,-0.46159 0,-0.16716 -0.04872,-0.30393 -0.108263,-0.30393 -0.05955,0 -0.108264,-0.0984 -0.108264,-0.21872 0,-0.1203 -0.04872,-0.21872 -0.108264,-0.21872 -0.06015,0 -0.108264,-0.29163 -0.108264,-0.65616 0,-0.36453 -0.04812,-0.65615 -0.108264,-0.65615 -0.05954,0 -0.108263,-0.14764 -0.108263,-0.32808 0,-0.18045 -0.04872,-0.32808 -0.108265,-0.32808 -0.06015,0 -0.108263,-0.29163 -0.108263,-0.65616 0,-0.36454 -0.04812,-0.65616 -0.108264,-0.65616 -0.05954,0 -0.108264,-0.14763 -0.108264,-0.32807 0,-0.18045 -0.04872,-0.32808 -0.108264,-0.32808 -0.05954,0 -0.108264,-0.24607 -0.108264,-0.5468 0,-0.30074 -0.04872,-0.5468 -0.108263,-0.5468 -0.05954,0 -0.108264,-0.14764 -0.108264,-0.32807 0,-0.18045 -0.04872,-0.32808 -0.108264,-0.32808 -0.05954,0 -0.108264,-0.0984 -0.108264,-0.21872 0,-0.1203 -0.04872,-0.21872 -0.108264,-0.21872 -0.05954,0 -0.108263,-0.19685 -0.108263,-0.43744 0,-0.2406 -0.04872,-0.43744 -0.108264,-0.43744 -0.05955,0 -0.108264,-0.14764 -0.108264,-0.32808 0,-0.18045 -0.04872,-0.32807 -0.108264,-0.32807 -0.06496,0 -0.108264,-0.43745 -0.108264,-1.0936 0,-0.65617 -0.04331,-1.0936 -0.108263,-1.0936 -0.06186,0 -0.108264,-0.32808 -0.108264,-0.76552 0,-0.43743 -0.0464,-0.76551 -0.108264,-0.76551 -0.07057,0 -0.108264,-1.7133 -0.108264,-4.92118 0,-3.20788 0.03769,-4.92118 0.108264,-4.92118 0.06315,0 0.108264,-0.36453 0.108264,-0.87488 0,-0.51034 0.04511,-0.87487 0.108264,-0.87487 0.05954,0 0.108263,-0.24607 0.108263,-0.5468 0,-0.30074 0.04872,-0.5468 0.108264,-0.5468 0.05954,0 0.108264,-0.14764 0.108264,-0.32807 0,-0.18045 0.04872,-0.32809 0.108264,-0.32809 0.05954,0 0.108264,-0.19684 0.108264,-0.43743 0,-0.24059 0.04872,-0.43745 0.108263,-0.43745 0.05954,0 0.108264,-0.14763 0.108264,-0.32807 0,-0.18044 0.04872,-0.32808 0.108264,-0.32808 0.05954,0 0.108264,-0.19685 0.108264,-0.43744 0,-0.24059 0.04872,-0.43744 0.108264,-0.43744 0.05954,0 0.108263,-0.14764 0.108263,-0.32807 0,-0.18045 0.04872,-0.32808 0.108264,-0.32808 0.05954,0 0.108264,-0.14764 0.108264,-0.32809 0,-0.18044 0.04872,-0.32808 0.108264,-0.32808 0.05954,0 0.108264,-0.13677 0.108264,-0.30393 0,-0.17848 0.08938,-0.36901 0.216528,-0.46157 0.127152,-0.0926 0.216527,-0.28311 0.216527,-0.4616 0,-0.16716 0.04872,-0.30393 0.108264,-0.30393 0.05954,0 0.108264,-0.0984 0.108264,-0.21873 0,-0.12029 0.04872,-0.21872 0.108264,-0.21872 0.05954,0 0.108263,-0.13677 0.108263,-0.30393 0,-0.17848 0.08938,-0.36901 0.216528,-0.46158 0.11909,-0.0867 0.216528,-0.23435 0.216528,-0.32808 0,-0.0937 0.09744,-0.24137 0.216527,-0.32808 0.11909,-0.0867 0.216528,-0.23434 0.216528,-0.32808 0,-0.0937 0.09744,-0.24137 0.216527,-0.32808 0.119091,-0.0867 0.216528,-0.23433 0.216528,-0.32807 0,-0.0937 0.09744,-0.24138 0.216528,-0.32808 0.11909,-0.0867 0.216527,-0.22546 0.216527,-0.30835 0,-0.0828 0.146156,-0.28861 0.324792,-0.45717 0.178635,-0.16856 0.324791,-0.36541 0.324791,-0.43744 0,-0.072 0.146156,-0.26888 0.324791,-0.43744 0.178636,-0.16855 0.324792,-0.38514 0.324792,-0.48131 0,-0.0962 0.04872,-0.17484 0.108264,-0.17484 0.05954,0 0.108263,-0.0984 0.108263,-0.21872 0,-0.1203 0.04872,-0.21872 0.108264,-0.21872 0.05954,0 0.108264,-0.0984 0.108264,-0.21872 0,-0.14581 0.07218,-0.21872 0.216528,-0.21872 0.16841,0 0.216527,-0.0729 0.216527,-0.32808 0,-0.25517 0.04812,-0.32808 0.216528,-0.32808 0.164588,0 0.216527,-0.0729 0.216527,-0.30393 0,-0.17848 0.08938,-0.36901 0.216528,-0.46159 0.11909,-0.0867 0.216528,-0.23434 0.216528,-0.32808 0,-0.0937 0.09744,-0.24136 0.216527,-0.32807 0.11909,-0.0867 0.216528,-0.24521 0.216528,-0.35222 0,-0.11363 0.08014,-0.19458 0.192627,-0.19458 0.105945,0 0.262856,-0.0984 0.348692,-0.21872 0.08583,-0.1203 0.242746,-0.21871 0.348691,-0.21871 0.120452,0 0.192628,-0.0819 0.192628,-0.21873 0,-0.13677 0.07218,-0.21872 0.192627,-0.21872 0.105945,0 0.262856,-0.0984 0.348692,-0.21872 0.08583,-0.12029 0.2232,-0.21871 0.305255,-0.21871 0.08206,0 0.285721,-0.14764 0.452591,-0.32809 0.166871,-0.18043 0.370537,-0.32807 0.452592,-0.32807 0.08206,0 0.21942,-0.0984 0.305255,-0.21873 0.129655,-0.1817 0.280261,-0.21871 0.890011,-0.21871 0.417121,0 0.733946,-0.0472 0.733946,-0.10936 0,-0.0648 0.396967,-0.10936 0.974374,-0.10936 0.577407,0 0.974374,-0.0445 0.974374,-0.10935 0,-0.0602 0.09744,-0.10937 0.216528,-0.10937 0.11909,0 0.216528,0.0492 0.216528,0.10937 0,0.0601 0.09744,0.10935 0.216527,0.10935 0.11909,0 0.216528,0.0492 0.216528,0.10936 0,0.0602 0.09744,0.10936 0.216527,0.10936 0.11909,0 0.216528,0.0492 0.216528,0.10936 0,0.0602 0.09744,0.10935 0.216528,0.10935 0.11909,0 0.216527,0.0492 0.216527,0.10937 0,0.0601 0.09744,0.10936 0.216528,0.10936 0.11909,0 0.216527,0.0492 0.216527,0.10936 0,0.0601 0.08668,0.10936 0.192628,0.10936 0.105945,0 0.262856,0.0984 0.348691,0.21872 0.08584,0.12029 0.242747,0.21872 0.348692,0.21872 0.120451,0 0.192627,0.0819 0.192627,0.21871 0,0.13677 0.07218,0.21872 0.192628,0.21872 0.105945,0 0.262856,0.0984 0.348691,0.21872 0.08584,0.1203 0.242747,0.21873 0.348692,0.21873 0.120451,0 0.192627,0.0819 0.192627,0.21871 0,0.13677 0.07218,0.21872 0.192628,0.21872 0.105945,0 0.262856,0.0984 0.348691,0.21872 0.08584,0.1203 0.242747,0.21872 0.348692,0.21872 0.112485,0 0.192627,0.0809 0.192627,0.19457 0,0.10702 0.09744,0.26552 0.216528,0.35223 0.11909,0.0867 0.216528,0.22445 0.216528,0.30611 0,0.0816 0.194874,0.3376 0.433055,0.56877 0.23818,0.23115 0.433055,0.47507 0.433055,0.54203 0,0.067 0.487187,0.61043 1.082638,1.20772 0.595451,0.59728 1.082638,1.1615 1.082638,1.25382 0,0.0949 0.09405,0.16785 0.216527,0.16785 0.135397,0 0.216528,0.0729 0.216528,0.19458 0,0.10701 0.09744,0.26551 0.216528,0.35222 0.11909,0.0867 0.216527,0.24521 0.216527,0.35222 0,0.12167 0.08113,0.19458 0.216528,0.19458 0.144352,0 0.216527,0.0729 0.216527,0.21872 0,0.14581 0.07218,0.21871 0.216528,0.21871 0.124286,0 0.216528,0.0729 0.216528,0.17114 0,0.0942 0.243593,0.41081 0.541319,0.70374 0.297725,0.29293 0.541319,0.58887 0.541319,0.65763 0,0.0688 0.194875,0.31416 0.433055,0.54533 0.23818,0.23115 0.433055,0.49796 0.433055,0.5929 0,0.0997 0.09146,0.17261 0.216528,0.17261 0.125073,0 0.216527,0.0729 0.216527,0.17263 0,0.095 0.194875,0.36174 0.433055,0.5929 0.238181,0.23115 0.433056,0.4871 0.433056,0.56876 0,0.0816 0.09744,0.21941 0.216527,0.30611 0.11909,0.0867 0.216528,0.24521 0.216528,0.35222 0,0.12168 0.08113,0.19458 0.216527,0.19458 0.144352,0 0.216528,0.0729 0.216528,0.21872 0,0.14581 0.07218,0.21872 0.216528,0.21872 0.144351,0 0.216527,0.0729 0.216527,0.21872 0,0.14582 0.07218,0.21872 0.216528,0.21872 0.144352,0 0.216527,0.0729 0.216527,0.21872 0,0.13677 0.07218,0.21872 0.192628,0.21872 0.105945,0 0.262856,0.0984 0.348691,0.21872 0.08584,0.1203 0.231992,0.21871 0.324792,0.21871 0.0928,0 0.238956,0.0984 0.324791,0.21872 0.08584,0.1203 0.242747,0.21873 0.348692,0.21873 0.120451,0 0.192627,0.0819 0.192627,0.21872 0,0.12751 0.07218,0.21871 0.173091,0.21871 0.0952,0 0.309622,0.14764 0.476492,0.32809 0.186575,0.20175 0.411737,0.32807 0.584756,0.32807 0.154745,0 0.281354,0.0492 0.281354,0.10936 0,0.0601 0.09744,0.10935 0.216528,0.10935 0.11909,0 0.216528,0.0492 0.216528,0.10937 0,0.0601 0.146156,0.10936 0.324791,0.10936 0.178635,0 0.324791,0.0492 0.324791,0.10936 0,0.0601 0.135401,0.10936 0.300892,0.10936 0.176694,0 0.365309,0.0903 0.456955,0.21872 0.108692,0.15232 0.280262,0.21872 0.565219,0.21872 0.225036,0 0.409155,0.0492 0.409155,0.10935 0,0.0601 0.146156,0.10936 0.324792,0.10936 0.178635,0 0.324791,0.0492 0.324791,0.10937 0,0.0601 0.146156,0.10935 0.324791,0.10935 0.178636,0 0.324792,0.0492 0.324792,0.10937 0,0.0601 0.194875,0.10935 0.433055,0.10935 0.23818,0 0.433055,0.0492 0.433055,0.10936 0,0.0602 0.146156,0.10936 0.324792,0.10936 0.178635,0 0.324791,0.0492 0.324791,0.10936 0,0.0602 0.243594,0.10936 0.541319,0.10936 0.297725,0 0.541319,0.0492 0.541319,0.10936 0,0.0693 0.793935,0.10936 2.165276,0.10936 1.371341,0 2.165276,0.0401 2.165276,0.10936 0,0.0638 0.360879,0.10936 0.86611,0.10936 0.505231,0 0.866111,0.0456 0.866111,0.10935 0,0.0602 0.243593,0.10937 0.541319,0.10937 0.297725,0 0.541319,-0.0492 0.541319,-0.10937 0,-0.0677 0.577407,-0.10935 1.515693,-0.10935 0.938286,0 1.515693,-0.0416 1.515693,-0.10936 0,-0.0601 0.146156,-0.10936 0.324792,-0.10936 0.178635,0 0.324791,-0.0492 0.324791,-0.10936 0,-0.0602 0.146156,-0.10936 0.324791,-0.10936 0.178636,0 0.324792,-0.0492 0.324792,-0.10936 0,-0.0601 0.146156,-0.10936 0.324791,-0.10936 0.178635,0 0.324792,-0.0492 0.324792,-0.10936 0,-0.0601 0.09744,-0.10936 0.216527,-0.10936 0.11909,0 0.216528,-0.0492 0.216528,-0.10935 0,-0.0602 0.146156,-0.10937 0.324791,-0.10937 0.178635,0 0.324792,-0.0492 0.324792,-0.10935 0,-0.0602 0.09744,-0.10937 0.216527,-0.10937 0.11909,0 0.216528,-0.0492 0.216528,-0.10936 0,-0.0602 0.146156,-0.10935 0.324791,-0.10935 0.178635,0 0.324792,-0.0492 0.324792,-0.10937 0,-0.0601 0.09744,-0.10935 0.216527,-0.10935 0.11909,0 0.216528,-0.0492 0.216528,-0.10937 0,-0.0601 0.09744,-0.10935 0.216527,-0.10935 0.119091,0 0.216528,-0.0492 0.216528,-0.10936 0,-0.0602 0.09744,-0.10936 0.216528,-0.10936 0.11909,0 0.216527,-0.0492 0.216527,-0.10936 0,-0.0602 0.09744,-0.10937 0.216528,-0.10937 0.11909,0 0.216527,-0.0492 0.216527,-0.10935 0,-0.0601 0.09744,-0.10936 0.216528,-0.10936 0.11909,0 0.216528,-0.0492 0.216528,-0.10936 0,-0.0601 0.08668,-0.10936 0.192627,-0.10936 0.105945,0 0.262856,-0.0984 0.348692,-0.21872 0.08609,-0.12065 0.280261,-0.21872 0.433055,-0.21872 0.152793,0 0.346967,-0.0981 0.433055,-0.21871 0.08609,-0.12065 0.280262,-0.21872 0.433055,-0.21872 0.152794,0 0.346967,-0.0981 0.433055,-0.21873 0.105753,-0.1482 0.280262,-0.21872 0.541319,-0.21872 0.261058,0 0.435567,-0.0705 0.541319,-0.21871 0.09165,-0.12845 0.280262,-0.21872 0.456956,-0.21872 0.228715,0 0.300891,-0.0524 0.300891,-0.21872 0,-0.14581 0.07218,-0.21872 0.216528,-0.21872 0.144351,0 0.216527,-0.0729 0.216527,-0.21872 0,-0.14582 0.07218,-0.21872 0.216528,-0.21872 0.144352,0 0.216527,-0.0729 0.216527,-0.21872 0,-0.14581 0.07218,-0.21872 0.216528,-0.21872 0.123294,0 0.216528,-0.0729 0.216528,-0.16931 0,-0.0931 0.341031,-0.50905 0.757846,-0.92429 0.416816,-0.41522 0.757847,-0.83114 0.757847,-0.92427 0,-0.0964 0.09323,-0.16933 0.216527,-0.16933 0.12624,0 0.216528,-0.0729 0.216528,-0.17484 0,-0.0962 0.146156,-0.31276 0.324791,-0.48132 0.178636,-0.16856 0.324792,-0.38515 0.324792,-0.48131 0,-0.10194 0.09029,-0.17484 0.216527,-0.17484 0.144352,0 0.216528,-0.0729 0.216528,-0.21872 0,-0.14581 0.07218,-0.21872 0.216528,-0.21872 0.126239,0 0.216527,-0.0729 0.216527,-0.17484 0,-0.0962 0.146156,-0.31276 0.324792,-0.48132 0.178635,-0.16856 0.324791,-0.38515 0.324791,-0.48131 0,-0.10194 0.09029,-0.17484 0.216528,-0.17484 0.135396,0 0.216527,-0.0729 0.216527,-0.19458 0,-0.10702 0.09744,-0.26552 0.216528,-0.35222 0.11909,-0.0867 0.216527,-0.24521 0.216527,-0.35223 0,-0.12167 0.08113,-0.19457 0.216528,-0.19457 0.123294,0 0.216528,-0.0729 0.216528,-0.16931 0,-0.0931 0.341031,-0.50905 0.757846,-0.92429 0.416816,-0.41523 0.757847,-0.83115 0.757847,-0.92428 0,-0.0931 0.07656,-0.16931 0.170129,-0.16931 0.198607,0 0.479454,-0.25668 0.479454,-0.4382 0,-0.0692 0.194874,-0.31488 0.433055,-0.54603 0.23818,-0.23117 0.433055,-0.49797 0.433055,-0.59291 0,-0.0997 0.09145,-0.17261 0.216528,-0.17261 0.144351,0 0.216527,-0.0729 0.216527,-0.21872 0,-0.14582 0.07218,-0.21873 0.216528,-0.21873 0.144351,0 0.216527,-0.0729 0.216527,-0.21872 0,-0.14581 0.07218,-0.21871 0.216528,-0.21871 0.123123,0 0.216528,-0.0729 0.216528,-0.16901 0,-0.21877 0.482215,-0.70586 0.698793,-0.70586 0.09202,0 0.167317,-0.0745 0.167317,-0.16561 0,-0.20134 1.78049,-2.02159 1.977433,-2.02159 0.07702,0 0.210271,-0.0984 0.296107,-0.21872 0.08584,-0.12029 0.242746,-0.21872 0.348691,-0.21872 0.120452,0 0.192628,-0.0819 0.192628,-0.21871 0,-0.12555 0.07218,-0.21872 0.169424,-0.21872 0.09318,0 0.406692,-0.24607 0.696686,-0.5468 0.289994,-0.30074 0.603502,-0.5468 0.696686,-0.5468 0.09725,0 0.169425,-0.0931 0.169425,-0.21872 0,-0.13676 0.07218,-0.21872 0.192627,-0.21872 0.105945,0 0.262856,-0.0984 0.348692,-0.21871 0.08584,-0.1203 0.222206,-0.21873 0.303047,-0.21873 0.08084,0 0.334219,-0.19685 0.563063,-0.43744 0.274482,-0.28857 0.511077,-0.43743 0.695227,-0.43743 0.153531,0 0.279147,-0.0492 0.279147,-0.10937 0,-0.0601 0.09744,-0.10935 0.216528,-0.10935 0.11909,0 0.216527,-0.0492 0.216527,-0.10936 0,-0.0601 0.146156,-0.10936 0.324792,-0.10936 0.178635,0 0.324791,-0.0492 0.324791,-0.10936 0,-0.0602 0.09744,-0.10937 0.216528,-0.10937 0.11909,0 0.216527,-0.0492 0.216527,-0.10935 0,-0.0601 0.09744,-0.10936 0.216528,-0.10936 0.11909,0 0.216528,-0.0492 0.216528,-0.10936 0,-0.0601 0.09744,-0.10936 0.216527,-0.10936 0.11909,0 0.216528,-0.0492 0.216528,-0.10935 0,-0.0602 0.194875,-0.10937 0.433055,-0.10937 0.23818,0 0.433055,-0.0492 0.433055,-0.10936 0,-0.0602 0.09744,-0.10936 0.216528,-0.10936 0.11909,0 0.216527,-0.0492 0.216527,-0.10936 0,-0.0602 0.146156,-0.10935 0.324792,-0.10935 0.178635,0 0.324791,-0.0492 0.324791,-0.10937 0,-0.0601 0.09744,-0.10935 0.216528,-0.10935 0.11909,0 0.216527,-0.0492 0.216527,-0.10937 0,-0.0601 0.194875,-0.10935 0.433056,-0.10935 0.23818,0 0.433055,-0.0492 0.433055,-0.10936 0,-0.0602 0.09744,-0.10937 0.216527,-0.10937 0.11909,0 0.216528,-0.0492 0.216528,-0.10935 0,-0.0602 0.194875,-0.10937 0.433055,-0.10937 0.23818,0 0.433055,-0.0492 0.433055,-0.10935 0,-0.0601 0.09744,-0.10936 0.216528,-0.10936 0.119089,0 0.216529,-0.0492 0.216529,-0.10936 0,-0.0607 0.2887,-0.10936 0.64958,-0.10936 0.360882,0 0.649582,-0.0486 0.649582,-0.10936 0,-0.0602 0.0974,-0.10936 0.21653,-0.10936 0.11909,0 0.21653,-0.0492 0.21653,-0.10936 0,-0.0607 0.2887,-0.10936 0.64958,-0.10936 0.36088,0 0.64958,-0.0486 0.64958,-0.10936 0,-0.0601 0.19488,-0.10935 0.43306,-0.10935 0.23818,0 0.43305,-0.0492 0.43305,-0.10937 0,-0.07 0.974376,-0.10936 2.706596,-0.10936 1.73222,0 2.70659,0.0394 2.70659,0.10936 0,0.0638 0.36088,0.10937 0.86611,0.10937 0.50523,0 0.86611,-0.0456 0.86611,-0.10937 0,-0.0701 1.01047,-0.10936 2.81486,-0.10936 1.8044,0 2.81486,0.0393 2.81486,0.10936 0,0.0602 0.14616,0.10937 0.32479,0.10937 0.17864,0 0.32479,0.0492 0.32479,0.10935 0,0.0607 0.28871,0.10936 0.64959,0.10936 0.36088,0 0.64958,0.0486 0.64958,0.10936 0,0.0601 0.0974,0.10936 0.21653,0.10936 0.11909,0 0.21653,0.0492 0.21653,0.10936 0,0.0607 0.2887,0.10936 0.64958,0.10936 0.36088,0 0.64958,0.0486 0.64958,0.10936 0,0.0602 0.0974,0.10936 0.21653,0.10936 0.11909,0 0.21653,0.0492 0.21653,0.10936 0,0.0601 0.19487,0.10935 0.43305,0.10935 0.23818,0 0.43306,0.0492 0.43306,0.10937 0,0.0601 0.0974,0.10935 0.21652,0.10935 0.11909,0 0.21653,0.0492 0.21653,0.10937 0,0.0601 0.19488,0.10936 0.43306,0.10936 0.23818,0 0.43305,0.0492 0.43305,0.10935 0,0.0602 0.0974,0.10937 0.21653,0.10937 0.11909,0 0.21653,0.0492 0.21653,0.10935 0,0.0602 0.14615,0.10937 0.32479,0.10937 0.17863,0 0.32479,0.0492 0.32479,0.10935 0,0.0601 0.0974,0.10936 0.21653,0.10936 0.11909,0 0.21653,0.0492 0.21653,0.10936 0,0.0601 0.19487,0.10936 0.43305,0.10936 0.23818,0 0.43306,0.0492 0.43306,0.10937 0,0.0601 0.0974,0.10935 0.21652,0.10935 0.11909,0 0.21653,0.0492 0.21653,0.10936 0,0.0602 0.0974,0.10936 0.21653,0.10936 0.11909,0 0.21653,0.0492 0.21653,0.10936 0,0.0602 0.0974,0.10935 0.21652,0.10935 0.11909,0 0.21653,0.0492 0.21653,0.10937 0,0.0601 0.14616,0.10936 0.32479,0.10936 0.17864,0 0.32479,0.0492 0.32479,0.10936 0,0.0601 0.0974,0.10936 0.21653,0.10936 0.11909,0 0.21653,0.0492 0.21653,0.10935 0,0.0602 0.12562,0.10937 0.27915,0.10937 0.18415,0 0.42074,0.14886 0.69522,0.43743 0.22885,0.24059 0.48223,0.43744 0.56307,0.43744 0.0808,0 0.21721,0.0984 0.30304,0.21873 0.0858,0.12029 0.24275,0.21871 0.3487,0.21871 0.12045,0 0.19262,0.0819 0.19262,0.21872 0,0.12555 0.0722,0.21872 0.16943,0.21872 0.0932,0 0.40669,0.24606 0.69668,0.5468 0.29,0.30073 0.58297,0.5468 0.65105,0.5468 0.0681,0 0.31101,0.19684 0.53986,0.43743 0.22884,0.24059 0.46909,0.43744 0.53389,0.43744 0.18195,0 2.82228,2.71019 2.82228,2.89696 0,0.0922 0.0956,0.16511 0.21653,0.16511 0.14435,0 0.21653,0.0729 0.21653,0.21871 0,0.14582 0.0722,0.21872 0.21653,0.21872 0.14435,0 0.21652,0.0729 0.21652,0.21873 0,0.14581 0.0722,0.21872 0.21653,0.21872 0.12507,0 0.21653,0.0729 0.21653,0.17261 0,0.095 0.19487,0.36174 0.43305,0.59291 0.23818,0.23115 0.43306,0.47686 0.43306,0.54603 0,0.18152 0.28085,0.4382 0.47945,0.4382 0.098,0 0.17013,0.0928 0.17013,0.21872 0,0.14581 0.0722,0.21872 0.21653,0.21872 0.12428,0 0.21653,0.0729 0.21653,0.17114 0,0.0941 0.24359,0.4108 0.54132,0.70374 0.29772,0.29292 0.54131,0.6096 0.54131,0.70373 0,0.0983 0.0923,0.17114 0.21653,0.17114 0.1354,0 0.21653,0.0729 0.21653,0.19457 0,0.10702 0.0974,0.26552 0.21653,0.35223 0.11909,0.0867 0.21653,0.2452 0.21653,0.35222 0,0.12167 0.0811,0.19458 0.21652,0.19458 0.12624,0 0.21653,0.0729 0.21653,0.17484 0,0.0962 0.14616,0.31275 0.32479,0.48131 0.17864,0.16856 0.32479,0.38515 0.32479,0.48132 0,0.10194 0.0903,0.17484 0.21653,0.17484 0.14435,0 0.21653,0.0729 0.21653,0.21872 0,0.14581 0.0722,0.21872 0.21653,0.21872 0.12624,0 0.21652,0.0729 0.21652,0.17484 0,0.0962 0.14616,0.31275 0.32479,0.48131 0.17864,0.16856 0.3248,0.38515 0.3248,0.48132 0,0.10194 0.0903,0.17484 0.21652,0.17484 0.1233,0 0.21653,0.0729 0.21653,0.16933 0,0.0931 0.34103,0.50905 0.75785,0.92427 0.41681,0.41524 0.75784,0.83116 0.75784,0.92429 0,0.0964 0.0932,0.16931 0.21653,0.16931 0.14435,0 0.21653,0.0729 0.21653,0.21872 0,0.14581 0.0722,0.21872 0.21653,0.21872 0.14435,0 0.21653,0.0729 0.21653,0.21872 0,0.14582 0.0722,0.21872 0.21652,0.21872 0.14435,0 0.21653,0.0729 0.21653,0.21872 0,0.16625 0.0722,0.21872 0.30089,0.21872 0.1767,0 0.36531,0.0903 0.45696,0.21872 0.10575,0.14821 0.28026,0.21871 0.54132,0.21871 0.26105,0 0.43556,0.0705 0.54131,0.21872 0.0861,0.12065 0.28027,0.21873 0.43306,0.21873 0.15279,0 0.34697,0.0981 0.43306,0.21872 0.0861,0.12065 0.28026,0.21871 0.43305,0.21871 0.15279,0 0.34697,0.0981 0.43306,0.21872 0.0858,0.12029 0.24274,0.21872 0.34869,0.21872 0.10594,0 0.19262,0.0492 0.19262,0.10936 0,0.0602 0.0974,0.10936 0.21653,0.10936 0.11909,0 0.21653,0.0492 0.21653,0.10936 0,0.0601 0.0974,0.10935 0.21653,0.10935 0.11909,0 0.21653,0.0492 0.21653,0.10937 0,0.0601 0.0974,0.10936 0.21652,0.10936 0.11909,0 0.21653,0.0492 0.21653,0.10936 0,0.0601 0.0974,0.10936 0.21653,0.10936 0.11909,0 0.21653,0.0492 0.21653,0.10935 0,0.0602 0.0974,0.10937 0.21652,0.10937 0.11909,0 0.21653,0.0492 0.21653,0.10935 0,0.0602 0.14616,0.10937 0.32479,0.10937 0.17864,0 0.32479,0.0492 0.32479,0.10935 0,0.0601 0.0974,0.10936 0.21653,0.10936 0.11909,0 0.21653,0.0492 0.21653,0.10937 0,0.0601 0.14615,0.10935 0.32479,0.10935 0.17864,0 0.32479,0.0492 0.32479,0.10937 0,0.0601 0.0974,0.10935 0.21653,0.10935 0.11909,0 0.21653,0.0492 0.21653,0.10936 0,0.0602 0.14615,0.10936 0.32479,0.10936 0.17863,0 0.32479,0.0492 0.32479,0.10936 0,0.0602 0.14616,0.10936 0.32479,0.10936 0.17864,0 0.32479,0.0492 0.32479,0.10936 0,0.0601 0.14616,0.10936 0.32479,0.10936 0.17864,0 0.3248,0.0492 0.3248,0.10936 0,0.0677 0.5774,0.10936 1.51569,0.10936 0.93828,0 1.51569,0.0416 1.51569,0.10935 0,0.0602 0.2436,0.10937 0.54132,0.10937 0.29773,0 0.54132,-0.0492 0.54132,-0.10937 0,-0.0647 0.39697,-0.10935 0.97437,-0.10935 0.57741,0 0.97438,-0.0446 0.97438,-0.10936 0,-0.0691 0.75784,-0.10936 2.05701,-0.10936 1.29917,0 2.05701,-0.0403 2.05701,-0.10936 0,-0.0602 0.2436,-0.10936 0.54132,-0.10936 0.29773,0 0.54132,-0.0492 0.54132,-0.10936 0,-0.0601 0.14616,-0.10936 0.32479,-0.10936 0.17864,0 0.32479,-0.0492 0.32479,-0.10936 0,-0.0601 0.19488,-0.10936 0.43306,-0.10936 0.23818,0 0.43305,-0.0492 0.43305,-0.10935 0,-0.0602 0.14616,-0.10937 0.32479,-0.10937 0.17864,0 0.3248,-0.0492 0.3248,-0.10935 0,-0.0602 0.14615,-0.10937 0.32479,-0.10937 0.17863,0 0.32479,-0.0492 0.32479,-0.10936 0,-0.0602 0.18412,-0.10935 0.40915,-0.10935 0.28496,0 0.45653,-0.0664 0.56522,-0.21872 0.0916,-0.12844 0.28026,-0.21872 0.45696,-0.21872 0.16549,0 0.30089,-0.0492 0.30089,-0.10936 0,-0.0602 0.14616,-0.10936 0.32479,-0.10936 0.17864,0 0.32479,-0.0492 0.32479,-0.10936 0,-0.0602 0.14616,-0.10937 0.32479,-0.10937 0.17864,0 0.3248,-0.0492 0.3248,-0.10935 0,-0.0601 0.0779,-0.10936 0.17309,-0.10936 0.0952,0 0.30962,-0.14764 0.47649,-0.32807 0.16687,-0.18045 0.38129,-0.32809 0.47649,-0.32809 0.10092,0 0.17309,-0.0912 0.17309,-0.21871 0,-0.13677 0.0722,-0.21872 0.19263,-0.21872 0.10594,0 0.26285,-0.0984 0.34869,-0.21873 0.0858,-0.12029 0.23199,-0.21872 0.32479,-0.21872 0.0928,0 0.23896,-0.0984 0.32479,-0.21871 0.0858,-0.12029 0.24275,-0.21872 0.34869,-0.21872 0.12046,0 0.19263,-0.0819 0.19263,-0.21872 0,-0.14581 0.0722,-0.21872 0.21653,-0.21872 0.14435,0 0.21653,-0.0729 0.21653,-0.21872 0,-0.14582 0.0722,-0.21872 0.21652,-0.21872 0.14436,0 0.21653,-0.0729 0.21653,-0.21872 0,-0.14581 0.0722,-0.21872 0.21653,-0.21872 0.1354,0 0.21653,-0.0729 0.21653,-0.19458 0,-0.10701 0.0974,-0.26551 0.21653,-0.35222 0.11909,-0.0867 0.21652,-0.22331 0.21652,-0.30359 0,-0.0803 0.29231,-0.43577 0.64959,-0.79 0.35727,-0.35422 0.64958,-0.69985 0.64958,-0.76805 0,-0.0682 0.19487,-0.31312 0.43305,-0.54427 0.23818,-0.23117 0.43306,-0.47656 0.43306,-0.54533 0,-0.0688 0.24359,-0.3647 0.54132,-0.65763 0.29772,-0.29293 0.54132,-0.60961 0.54132,-0.70374 0,-0.0983 0.0922,-0.17114 0.21652,-0.17114 0.14436,0 0.21653,-0.0729 0.21653,-0.21871 0,-0.14582 0.0722,-0.21872 0.21653,-0.21872 0.1354,0 0.21653,-0.0729 0.21653,-0.19458 0,-0.10701 0.0974,-0.26552 0.21652,-0.35222 0.11909,-0.0867 0.21653,-0.24521 0.21653,-0.35222 0,-0.12167 0.0811,-0.19458 0.21653,-0.19458 0.12248,0 0.21653,-0.0729 0.21653,-0.16785 0,-0.0923 0.48718,-0.65654 1.08264,-1.25382 0.59545,-0.59729 1.08263,-1.14076 1.08263,-1.20772 0,-0.067 0.19488,-0.31088 0.43306,-0.54203 0.23818,-0.23117 0.43305,-0.4871 0.43305,-0.56877 0,-0.0816 0.0974,-0.21941 0.21653,-0.30611 0.11909,-0.0867 0.21653,-0.24521 0.21653,-0.35223 0,-0.11362 0.0801,-0.19457 0.19263,-0.19457 0.10594,0 0.26285,-0.0984 0.34869,-0.21872 0.0858,-0.1203 0.24274,-0.21872 0.34869,-0.21872 0.12045,0 0.19263,-0.0819 0.19263,-0.21872 0,-0.13676 0.0722,-0.21871 0.19262,-0.21871 0.10595,0 0.26286,-0.0984 0.3487,-0.21873 0.0858,-0.12029 0.24274,-0.21872 0.34869,-0.21872 0.12045,0 0.19263,-0.0819 0.19263,-0.21872 0,-0.13676 0.0722,-0.21871 0.19262,-0.21871 0.10595,0 0.26286,-0.0984 0.34869,-0.21872 0.0858,-0.1203 0.24275,-0.21872 0.3487,-0.21872 0.10594,0 0.19262,-0.0492 0.19262,-0.10936 0,-0.0601 0.0974,-0.10936 0.21653,-0.10936 0.11909,0 0.21653,-0.0492 0.21653,-0.10936 0,-0.0602 0.0974,-0.10937 0.21653,-0.10937 0.11909,0 0.21652,-0.0492 0.21652,-0.10935 0,-0.0601 0.0974,-0.10936 0.21653,-0.10936 0.11909,0 0.21653,-0.0492 0.21653,-0.10936 0,-0.0601 0.0974,-0.10936 0.21653,-0.10936 0.11909,0 0.21652,-0.0492 0.21652,-0.10935 0,-0.0602 0.0974,-0.10937 0.21653,-0.10937 0.11909,0 0.21653,0.0492 0.21653,0.10937 0,0.0649 0.39697,0.10935 0.97437,0.10935 0.57741,0 0.97438,0.0445 0.97438,0.10936 0,0.0621 0.31682,0.10936 0.73394,0.10936 0.60975,0 0.76036,0.037 0.89001,0.21871 0.0858,0.1203 0.2232,0.21873 0.30526,0.21873 0.0821,0 0.28572,0.14764 0.45259,0.32807 0.16687,0.18045 0.37054,0.32809 0.45259,0.32809 0.0821,0 0.21942,0.0984 0.30526,0.21871 0.0858,0.1203 0.24274,0.21872 0.34869,0.21872 0.12045,0 0.19263,0.0819 0.19263,0.21872 0,0.13677 0.0722,0.21873 0.19262,0.21873 0.10595,0 0.26286,0.0984 0.3487,0.21871 0.0858,0.12029 0.24274,0.21872 0.34869,0.21872 0.11248,0 0.19262,0.0809 0.19262,0.19458 0,0.10701 0.0974,0.26552 0.21653,0.35222 0.11909,0.0867 0.21653,0.23434 0.21653,0.32807 0,0.0937 0.0974,0.24138 0.21653,0.32808 0.12715,0.0925 0.21652,0.28311 0.21652,0.46159 0,0.23103 0.0519,0.30393 0.21653,0.30393 0.16841,0 0.21653,0.0729 0.21653,0.32808 0,0.25517 0.0481,0.32808 0.21653,0.32808 0.14435,0 0.21653,0.0729 0.21653,0.21872 0,0.12029 0.0487,0.21872 0.10826,0.21872 0.0595,0 0.10826,0.0984 0.10826,0.21872 0,0.12029 0.0487,0.21872 0.10827,0.21872 0.0595,0 0.10826,0.0787 0.10826,0.17484 0,0.0962 0.14616,0.31276 0.32479,0.48131 0.17864,0.16856 0.32479,0.36541 0.32479,0.43744 0,0.072 0.14616,0.26888 0.32479,0.43744 0.17864,0.16856 0.3248,0.37429 0.3248,0.45717 0,0.0829 0.0974,0.22164 0.21652,0.30835 0.11909,0.0867 0.21653,0.23434 0.21653,0.32808 0,0.0937 0.0974,0.24137 0.21653,0.32807 0.11909,0.0867 0.21653,0.22546 0.21653,0.30834 0,0.0829 0.14615,0.28863 0.32479,0.45718 0.17863,0.16856 0.32479,0.38515 0.32479,0.48132 0,0.0962 0.0487,0.17484 0.10826,0.17484 0.0595,0 0.10827,0.14764 0.10827,0.32808 0,0.18044 0.0487,0.32807 0.10826,0.32807 0.0596,0 0.10826,0.0984 0.10826,0.21872 0,0.1203 0.0487,0.21873 0.10827,0.21873 0.0595,0 0.10826,0.13677 0.10826,0.30393 0,0.17849 0.0894,0.36902 0.21653,0.4616 0.12715,0.0925 0.21653,0.28309 0.21653,0.46157 0,0.16716 0.0487,0.30393 0.10826,0.30393 0.0596,0 0.10826,0.13678 0.10826,0.30394 0,0.17849 0.0894,0.36901 0.21653,0.46158 0.17355,0.12636 0.21653,0.2831 0.21653,0.78967 0,0.34843 0.0486,0.63201 0.10826,0.63201 0.0596,0 0.10827,0.0984 0.10827,0.21872 0,0.1203 0.0487,0.21872 0.10826,0.21872 0.0596,0 0.10827,0.24606 0.10827,0.54679 0,0.30074 0.0487,0.5468 0.10826,0.5468 0.0595,0 0.10826,0.14764 0.10826,0.32809 0,0.18043 0.0487,0.32807 0.10827,0.32807 0.0595,0 0.10826,0.24606 0.10826,0.5468 0,0.30073 0.0487,0.5468 0.10826,0.5468 0.0632,0 0.10827,0.36453 0.10827,0.87487 0,0.51035 0.0451,0.87488 0.10826,0.87488 0.0706,0 0.10827,1.7133 0.10827,4.92118 0,3.20788 -0.0377,4.92118 -0.10827,4.92118 -0.0619,0 -0.10826,0.32808 -0.10826,0.76551 0,0.43744 -0.0464,0.76552 -0.10827,0.76552 -0.0649,0 -0.10826,0.43743 -0.10826,1.0936 0,0.65615 -0.0433,1.0936 -0.10826,1.0936 -0.0595,0 -0.10827,0.14762 -0.10827,0.32807 0,0.18044 -0.0487,0.32808 -0.10826,0.32808 -0.0596,0 -0.10826,0.19684 -0.10826,0.43744 0,0.24059 -0.0487,0.43744 -0.10827,0.43744 -0.0595,0 -0.10826,0.0984 -0.10826,0.21872 0,0.12029 -0.0487,0.21872 -0.10827,0.21872 -0.0601,0 -0.10826,0.29162 -0.10826,0.65615 0,0.36453 -0.0481,0.65616 -0.10826,0.65616 -0.0596,0 -0.10827,0.0984 -0.10827,0.21872 0,0.12029 -0.0487,0.21872 -0.10826,0.21872 -0.0596,0 -0.10827,0.19684 -0.10827,0.43743 0,0.24059 -0.0487,0.43744 -0.10826,0.43744 -0.0595,0 -0.10826,0.24606 -0.10826,0.5468 0,0.30074 -0.0487,0.5468 -0.10827,0.5468 -0.0595,0 -0.10826,0.14763 -0.10826,0.32808 0,0.18044 -0.0487,0.32808 -0.10826,0.32808 -0.0601,0 -0.10827,0.29162 -0.10827,0.65615 0,0.36453 -0.0481,0.65616 -0.10826,0.65616 -0.0596,0 -0.10827,0.0984 -0.10827,0.21872 0,0.1203 -0.0487,0.21872 -0.10826,0.21872 -0.0595,0 -0.10826,0.13677 -0.10826,0.30393 0,0.17849 -0.0894,0.36901 -0.21653,0.46159 -0.12715,0.0925 -0.21653,0.28309 -0.21653,0.46158 0,0.16717 -0.0487,0.30394 -0.10826,0.30394 -0.0596,0 -0.10827,0.0984 -0.10827,0.21871 0,0.12029 -0.0487,0.21872 -0.10826,0.21872 -0.0595,0 -0.10826,0.0984 -0.10826,0.21872 0,0.1203 -0.0487,0.21872 -0.10827,0.21872 -0.0595,0 -0.10826,0.0984 -0.10826,0.21872 0,0.1203 -0.0487,0.21871 -0.10826,0.21871 -0.0596,0 -0.10827,0.14764 -0.10827,0.32808 0,0.18045 -0.0487,0.32809 -0.10826,0.32809 -0.0596,0 -0.10827,0.14763 -0.10827,0.32808 0,0.18043 -0.0487,0.32807 -0.10826,0.32807 -0.0596,0 -0.10826,0.0984 -0.10826,0.21872 0,0.1203 -0.0487,0.21872 -0.10827,0.21872 -0.0595,0 -0.10826,0.0984 -0.10826,0.21872 0,0.12029 -0.0487,0.21872 -0.10827,0.21872 -0.0595,0 -0.10826,0.19685 -0.10826,0.43744 0,0.24059 -0.0487,0.43743 -0.10826,0.43743 -0.0596,0 -0.10827,0.0984 -0.10827,0.21872 0,0.1203 -0.0487,0.21873 -0.10826,0.21873 -0.0595,0 -0.10826,0.14763 -0.10826,0.32807 0,0.18044 -0.0487,0.32808 -0.10827,0.32808 -0.0595,0 -0.10826,0.0984 -0.10826,0.21872 0,0.1203 -0.0487,0.21872 -0.10827,0.21872 -0.0595,0 -0.10826,0.0876 -0.10826,0.19457 0,0.10702 -0.0974,0.26552 -0.21653,0.35222 -0.11909,0.0867 -0.21652,0.23435 -0.21652,0.32809 0,0.0937 -0.0974,0.24137 -0.21653,0.32808 -0.12715,0.0925 -0.21653,0.28309 -0.21653,0.46157 0,0.23104 -0.0519,0.30394 -0.21653,0.30394 -0.16459,0 -0.21653,0.0729 -0.21653,0.30394 0,0.17848 -0.0894,0.36901 -0.21652,0.46158 -0.11909,0.0867 -0.21653,0.23433 -0.21653,0.32807 0,0.0937 -0.0974,0.24138 -0.21653,0.32809 -0.11909,0.0867 -0.21653,0.22379 -0.21653,0.30463 0,0.0808 -0.24359,0.38668 -0.54131,0.6796 -0.29773,0.29293 -0.54132,0.58987 -0.54132,0.65986 0,0.07 -0.14616,0.26518 -0.32479,0.43374 -0.17864,0.16856 -0.3248,0.38515 -0.3248,0.48131 0,0.10194 -0.0903,0.17484 -0.21652,0.17484 -0.14436,0 -0.21653,0.0729 -0.21653,0.21872 0,0.14581 -0.0722,0.21872 -0.21653,0.21872 -0.1354,0 -0.21653,0.0729 -0.21653,0.19457 0,0.10703 -0.0974,0.26552 -0.21652,0.35223 -0.11909,0.0867 -0.21653,0.2238 -0.21653,0.30465 0,0.0808 -0.2436,0.38666 -0.54132,0.67958 -0.29773,0.29294 -0.54132,0.59875 -0.54132,0.6796 0,0.0808 -0.0974,0.21794 -0.21653,0.30465 -0.11909,0.0867 -0.21652,0.22379 -0.21652,0.30463 0,0.0808 -0.2436,0.38667 -0.54132,0.6796 -0.29773,0.29292 -0.54132,0.59875 -0.54132,0.6796 0,0.0808 -0.0974,0.21793 -0.21653,0.30464 -0.11909,0.0867 -0.21653,0.22166 -0.21653,0.29991 0,0.17371 -1.13806,1.34047 -1.30751,1.34047 -0.0667,0 -0.25784,0.14764 -0.42471,0.32809 -0.16687,0.18044 -0.36174,0.32808 -0.43305,0.32808 -0.0713,0 -0.26619,0.14763 -0.43306,0.32807 -0.16687,0.18044 -0.36174,0.32808 -0.43305,0.32808 -0.0713,0 -0.26619,0.14764 -0.43306,0.32808 -0.16687,0.18045 -0.36174,0.32808 -0.43305,0.32808 -0.0713,0 -0.26619,0.14763 -0.43306,0.32807 -0.16687,0.18045 -0.38129,0.32809 -0.47649,0.32809 -0.0952,0 -0.17309,0.0492 -0.17309,0.10936 0,0.0602 -0.0974,0.10935 -0.21653,0.10935 -0.14435,0 -0.21653,0.0729 -0.21653,0.21872 0,0.14581 -0.0722,0.21872 -0.21653,0.21872 -0.14435,0 -0.21652,0.0729 -0.21652,0.21872 0,0.13677 -0.0722,0.21872 -0.19263,0.21872 -0.10595,0 -0.26286,0.0984 -0.34869,0.21872 -0.0858,0.12029 -0.24275,0.21872 -0.34869,0.21872 -0.10595,0 -0.19263,0.0492 -0.19263,0.10935 0,0.0602 -0.0974,0.10937 -0.21653,0.10937 -0.11909,0 -0.21653,0.0492 -0.21653,0.10936 0,0.0602 -0.0974,0.10936 -0.21652,0.10936 -0.14436,0 -0.21653,0.0729 -0.21653,0.21871 0,0.14582 -0.0722,0.21872 -0.21653,0.21872 -0.11909,0 -0.21653,0.0492 -0.21653,0.10937 0,0.0601 -0.0974,0.10936 -0.21652,0.10936 -0.11909,0 -0.21653,0.0492 -0.21653,0.10935 0,0.0602 -0.0779,0.10937 -0.17309,0.10937 -0.0952,0 -0.30962,0.14763 -0.47649,0.32807 -0.16688,0.18044 -0.3813,0.32808 -0.4765,0.32808 -0.0952,0 -0.17309,0.0492 -0.17309,0.10936 0,0.0602 -0.0867,0.10936 -0.19263,0.10936 -0.10594,0 -0.26285,0.0984 -0.34869,0.21872 -0.0861,0.12065 -0.28026,0.21872 -0.43305,0.21872 -0.1528,0 -0.34697,0.0981 -0.43306,0.21872 -0.0861,0.12065 -0.28026,0.21872 -0.43305,0.21872 -0.1528,0 -0.34697,0.0981 -0.43306,0.21872 -0.10575,0.1482 -0.28026,0.21871 -0.54132,0.21871 -0.26105,0 -0.43556,0.0705 -0.54132,0.21872 -0.11679,0.16368 -0.28026,0.21872 -0.64958,0.21872 -0.36932,0 -0.53279,0.0551 -0.64958,0.21873 -0.1186,0.16621 -0.28026,0.21871 -0.67348,0.21871 -0.28458,0 -0.51742,0.0492 -0.51742,0.10936 0,0.0601 -0.0974,0.10936 -0.21653,0.10936 -0.11909,0 -0.21653,0.0492 -0.21653,0.10936 0,0.0601 -0.19487,0.10936 -0.43305,0.10936 -0.23818,0 -0.43306,0.0492 -0.43306,0.10935 0,0.0602 -0.19487,0.10937 -0.43305,0.10937 -0.23818,0 -0.43306,0.0492 -0.43306,0.10936 0,0.0602 -0.14616,0.10936 -0.32479,0.10936 -0.17864,0 -0.32479,0.0492 -0.32479,0.10936 0,0.0601 -0.19488,0.10935 -0.43306,0.10935 -0.23818,0 -0.43305,0.0492 -0.43305,0.10937 0,0.0601 -0.0974,0.10935 -0.21653,0.10935 -0.11909,0 -0.21653,0.0492 -0.21653,0.10937 0,0.0601 -0.24359,0.10936 -0.54132,0.10936 -0.29772,0 -0.54132,0.0492 -0.54132,0.10935 0,0.0602 -0.14615,0.10937 -0.32479,0.10937 -0.17863,0 -0.32479,0.0492 -0.32479,0.10935 0,0.0602 -0.19487,0.10936 -0.43305,0.10936 -0.23818,0 -0.43306,0.0492 -0.43306,0.10936 0,0.0601 -0.24359,0.10936 -0.54132,0.10936 -0.29772,0 -0.54132,0.0492 -0.54132,0.10937 0,0.0601 -0.19487,0.10935 -0.43305,0.10935 -0.23818,0 -0.43306,0.0492 -0.43306,0.10936 0,0.0602 -0.19487,0.10936 -0.43305,0.10936 -0.23818,0 -0.43306,0.0492 -0.43306,0.10936 0,0.0602 -0.24359,0.10936 -0.54132,0.10936 -0.29772,0 -0.54132,0.0492 -0.54132,0.10936 0,0.0601 -0.24359,0.10936 -0.54131,0.10936 -0.29773,0 -0.54132,0.0492 -0.54132,0.10936 0,0.0625 -0.32479,0.10936 -0.75785,0.10936 -0.43306,0 -0.75785,0.0469 -0.75785,0.10935 0,0.0625 -0.32479,0.10937 -0.75784,0.10937 -0.43306,0 -0.75785,0.0469 -0.75785,0.10935 0,0.071 -1.44352,0.10937 -4.11402,0.10937 -2.67051,0 -4.11403,-0.0384 -4.11403,-0.10937 0,-0.0601 -0.14615,-0.10935 -0.32479,-0.10935 -0.17864,0 -0.32479,-0.0492 -0.32479,-0.10937 0,-0.0638 -0.36088,-0.10935 -0.86611,-0.10935 -0.50523,0 -0.86611,-0.0456 -0.86611,-0.10936 0,-0.0602 -0.14616,-0.10936 -0.32479,-0.10936 -0.17864,0 -0.32479,-0.0492 -0.32479,-0.10936 0,-0.0602 -0.19488,-0.10936 -0.43306,-0.10936 -0.23818,0 -0.43306,-0.0492 -0.43306,-0.10936 0,-0.0601 -0.14615,-0.10936 -0.32479,-0.10936 -0.17863,0 -0.32479,-0.0492 -0.32479,-0.10936 0,-0.0601 -0.14615,-0.10936 -0.32479,-0.10936 -0.17863,0 -0.32479,-0.0492 -0.32479,-0.10935 0,-0.0602 -0.19488,-0.10937 -0.43306,-0.10937 -0.23818,0 -0.43305,-0.0492 -0.43305,-0.10936 0,-0.0602 -0.14616,-0.10936 -0.32479,-0.10936 -0.17864,0 -0.32479,-0.0492 -0.32479,-0.10936 0,-0.0601 -0.0974,-0.10935 -0.21653,-0.10935 -0.11909,0 -0.21653,-0.0492 -0.21653,-0.10937 0,-0.0601 -0.14616,-0.10935 -0.32479,-0.10935 -0.17864,0 -0.32479,-0.0492 -0.32479,-0.10936 0,-0.0602 -0.0974,-0.10937 -0.21653,-0.10937 -0.11909,0 -0.21653,-0.0492 -0.21653,-0.10935 0,-0.0601 -0.14615,-0.10937 -0.32479,-0.10937 -0.17863,0 -0.32479,-0.0492 -0.32479,-0.10935 0,-0.0602 -0.0974,-0.10936 -0.21653,-0.10936 -0.11909,0 -0.21653,-0.0492 -0.21653,-0.10936 0,-0.0601 -0.14615,-0.10936 -0.32479,-0.10936 -0.17863,0 -0.32479,-0.0492 -0.32479,-0.10937 0,-0.0601 -0.0974,-0.10935 -0.21653,-0.10935 -0.11909,0 -0.21652,-0.0492 -0.21652,-0.10936 0,-0.0602 -0.0974,-0.10936 -0.21653,-0.10936 -0.11909,0 -0.21653,-0.0492 -0.21653,-0.10936 0,-0.0602 -0.1354,-0.10936 -0.30089,-0.10936 -0.17669,0 -0.36531,-0.0903 -0.45696,-0.21871 -0.10869,-0.15233 -0.28026,-0.21873 -0.56521,-0.21873 -0.33698,0 -0.40916,-0.0386 -0.40916,-0.21872 0,-0.18013 -0.0722,-0.21872 -0.40915,-0.21872 -0.28496,0 -0.45653,-0.0664 -0.56522,-0.21871 -0.0861,-0.12065 -0.28026,-0.21872 -0.43306,-0.21872 -0.15279,0 -0.34697,-0.0981 -0.43305,-0.21872 -0.0858,-0.1203 -0.232,-0.21872 -0.3248,-0.21872 -0.0928,0 -0.23895,-0.0984 -0.32479,-0.21872 -0.0858,-0.12029 -0.24274,-0.21872 -0.34869,-0.21872 -0.10594,0 -0.19263,-0.0492 -0.19263,-0.10936 0,-0.0601 -0.0974,-0.10936 -0.21652,-0.10936 -0.11909,0 -0.21653,-0.0492 -0.21653,-0.10935 0,-0.0602 -0.0974,-0.10937 -0.21653,-0.10937 -0.14435,0 -0.21653,-0.0729 -0.21653,-0.21872 0,-0.12752 -0.0722,-0.21871 -0.17309,-0.21871 -0.0952,0 -0.30962,-0.14764 -0.47649,-0.32808 -0.16687,-0.18045 -0.36174,-0.32809 -0.43305,-0.32809 -0.0713,0 -0.26619,-0.14763 -0.43306,-0.32807 -0.16687,-0.18044 -0.38129,-0.32808 -0.47649,-0.32808 -0.10092,0 -0.17309,-0.0912 -0.17309,-0.21872 0,-0.13676 -0.0722,-0.21872 -0.19263,-0.21872 -0.10594,0 -0.26286,-0.0984 -0.34869,-0.21872 -0.0858,-0.12029 -0.23199,-0.21872 -0.32479,-0.21872 -0.0928,0 -0.23896,-0.0984 -0.32479,-0.21872 -0.0858,-0.12029 -0.2232,-0.21872 -0.30526,-0.21872 -0.0821,0 -0.28572,-0.14763 -0.45259,-0.32808 -0.16687,-0.18043 -0.37054,-0.32807 -0.45259,-0.32807 -0.0821,0 -0.21942,-0.0984 -0.30526,-0.21872 -0.0858,-0.1203 -0.2232,-0.21872 -0.30525,-0.21872 -0.0821,0 -0.28572,-0.14764 -0.45259,-0.32808 -0.16687,-0.18044 -0.36175,-0.32808 -0.43306,-0.32808 -0.0713,0 -0.26618,-0.14763 -0.43305,-0.32808 -0.16687,-0.18044 -0.37054,-0.32807 -0.4526,-0.32807 -0.082,0 -0.21942,-0.0984 -0.30525,-0.21873 -0.0858,-0.12029 -0.23199,-0.21872 -0.32479,-0.21872 -0.0928,0 -0.23896,-0.0984 -0.32479,-0.21871 -0.0858,-0.12029 -0.23199,-0.21872 -0.32479,-0.21872 -0.0928,0 -0.23896,-0.0984 -0.3248,-0.21872 -0.0858,-0.1203 -0.23199,-0.21872 -0.32479,-0.21872 -0.0928,0 -0.23895,-0.0984 -0.32479,-0.21872 -0.0858,-0.1203 -0.23199,-0.21872 -0.32479,-0.21872 -0.0928,0 -0.23896,-0.0984 -0.32479,-0.21872 -0.0917,-0.12843 -0.28026,-0.21872 -0.45696,-0.21872 -0.22871,0 -0.30089,-0.0524 -0.30089,-0.21872 0,-0.14581 -0.0722,-0.21871 -0.21653,-0.21871 -0.11909,0 -0.21652,-0.0492 -0.21652,-0.10937 0,-0.0601 -0.0974,-0.10935 -0.21653,-0.10935 -0.11909,0 -0.21653,-0.0492 -0.21653,-0.10937 0,-0.0601 -0.0779,-0.10935 -0.17309,-0.10935 -0.0952,0 -0.30962,-0.14764 -0.47649,-0.32808 -0.1726,-0.18664 -0.41439,-0.32808 -0.56086,-0.32808 -0.1416,0 -0.32768,-0.0984 -0.41352,-0.21872 -0.0916,-0.12844 -0.28026,-0.21872 -0.45695,-0.21872 -0.16549,0 -0.30089,-0.0492 -0.30089,-0.10936 0,-0.0602 -0.0974,-0.10936 -0.21653,-0.10936 -0.11909,0 -0.21653,-0.0492 -0.21653,-0.10936 0,-0.0601 -0.0974,-0.10935 -0.21653,-0.10935 -0.11909,0 -0.21652,-0.0492 -0.21652,-0.10937 0,-0.0601 -0.0974,-0.10935 -0.21653,-0.10935 -0.11909,0 -0.21653,-0.0492 -0.21653,-0.10936 0,-0.0602 -0.0974,-0.10937 -0.21653,-0.10937 -0.11909,0 -0.21652,-0.0492 -0.21652,-0.10935 0,-0.0602 -0.2436,-0.10937 -0.54132,-0.10937 -0.29773,0 -0.54132,-0.0492 -0.54132,-0.10935 0,-0.0602 -0.0974,-0.10936 -0.21653,-0.10936 -0.11909,0 -0.21653,-0.0492 -0.21653,-0.10936 0,-0.0601 -0.23283,-0.10936 -0.51742,-0.10936 -0.39322,0 -0.55487,-0.0525 -0.67348,-0.21872 -0.12876,-0.18046 -0.28026,-0.21872 -0.86611,-0.21872 -0.58585,0 -0.73734,-0.0383 -0.86611,-0.21872 -0.12508,-0.1753 -0.28026,-0.21872 -0.78175,-0.21872 -0.34494,0 -0.62568,-0.0491 -0.62568,-0.10936 0,-0.0601 -0.14615,-0.10936 -0.32479,-0.10936 -0.17864,0 -0.32479,-0.0492 -0.32479,-0.10935 0,-0.0602 -0.19488,-0.10937 -0.43306,-0.10937 -0.23818,0 -0.43305,-0.0492 -0.43305,-0.10935 0,-0.0607 -0.28871,-0.10937 -0.64958,-0.10937 -0.36088,0 -0.64959,-0.0486 -0.64959,-0.10936 0,-0.0602 -0.24359,-0.10935 -0.54132,-0.10935 -0.29772,0 -0.54132,-0.0492 -0.54132,-0.10937 0,-0.0607 -0.2887,-0.10935 -0.64958,-0.10935 -0.36088,0 -0.64958,-0.0486 -0.64958,-0.10937 0,-0.0601 -0.14616,-0.10935 -0.32479,-0.10935 -0.17864,0 -0.32479,0.0492 -0.32479,0.10935 0,0.0602 -0.2436,0.10937 -0.54132,0.10937 -0.29773,0 -0.54132,-0.0492 -0.54132,-0.10937 0,-0.0601 -0.19488,-0.10935 -0.43306,-0.10935 -0.23818,0 -0.43305,0.0492 -0.43305,0.10935 0,0.0607 -0.28871,0.10937 -0.64958,0.10937 -0.36088,0 -0.64959,0.0486 -0.64959,0.10935 0,0.0602 -0.24359,0.10937 -0.54132,0.10937 -0.29772,0 -0.54132,0.0492 -0.54132,0.10935 0,0.0608 -0.2887,0.10936 -0.64958,0.10936 -0.36088,0 -0.64958,0.0486 -0.64958,0.10937 0,0.0601 -0.19487,0.10935 -0.43305,0.10935 -0.23819,0 -0.433056,0.0492 -0.433056,0.10937 0,0.0601 -0.14616,0.10935 -0.32479,0.10935 -0.17864,0 -0.32479,0.0492 -0.32479,0.10936 0,0.0603 -0.28074,0.10936 -0.62569,0.10936 -0.50148,0 -0.65666,0.0434 -0.78174,0.21872 -0.12877,0.18046 -0.28026,0.21872 -0.86611,0.21872 -0.585852,0 -0.737352,0.0383 -0.866112,0.21872 -0.11861,0.16621 -0.28026,0.21872 -0.673486,0.21872 -0.28458,0 -0.517418,0.0492 -0.517418,0.10936 0,0.0602 -0.09744,0.10936 -0.216528,0.10936 -0.11909,0 -0.216527,0.0492 -0.216527,0.10936 0,0.0601 -0.243594,0.10935 -0.541319,0.10935 -0.297726,0 -0.541319,0.0492 -0.541319,0.10937 0,0.0601 -0.09744,0.10935 -0.216528,0.10935 -0.11909,0 -0.216528,0.0492 -0.216528,0.10937 0,0.0601 -0.09744,0.10936 -0.216527,0.10936 -0.11909,0 -0.216528,0.0492 -0.216528,0.10935 0,0.0602 -0.09744,0.10937 -0.216527,0.10937 -0.119091,0 -0.216528,0.0492 -0.216528,0.10935 0,0.0602 -0.09744,0.10936 -0.216528,0.10936 -0.11909,0 -0.216527,0.0492 -0.216527,0.10936 0,0.0601 -0.09744,0.10936 -0.216528,0.10936 -0.11909,0 -0.216527,0.0492 -0.216527,0.10937 0,0.0601 -0.09744,0.10935 -0.216528,0.10935 -0.11909,0 -0.216528,0.0492 -0.216528,0.10936 0,0.0602 -0.126609,0.10936 -0.281355,0.10936 -0.173018,0 -0.39818,0.12633 -0.584755,0.32808 -0.16687,0.18044 -0.370537,0.32808 -0.452592,0.32808 -0.08205,0 -0.219419,0.0984 -0.305255,0.21872 -0.08584,0.12029 -0.231991,0.21872 -0.324791,0.21872 -0.0928,0 -0.238956,0.0984 -0.324791,0.21871 -0.08609,0.12065 -0.280262,0.21872 -0.433056,0.21872 -0.152793,0 -0.346967,0.0981 -0.433055,0.21872 -0.08584,0.1203 -0.231991,0.21872 -0.324791,0.21872 -0.0928,0 -0.238956,0.0984 -0.324792,0.21872 -0.08583,0.1203 -0.231991,0.21872 -0.324791,0.21872 -0.0928,0 -0.238956,0.0984 -0.324791,0.21872 -0.08584,0.12029 -0.231992,0.21872 -0.324792,0.21872 -0.0928,0 -0.238956,0.0984 -0.324791,0.21872 -0.08584,0.1203 -0.231992,0.21871 -0.324792,0.21871 -0.0928,0 -0.238956,0.0984 -0.324791,0.21872 -0.08584,0.1203 -0.2232,0.21873 -0.305255,0.21873 -0.08205,0 -0.285721,0.14763 -0.452592,0.32807 -0.16687,0.18045 -0.361745,0.32808 -0.433055,0.32808 -0.07131,0 -0.266185,0.14764 -0.433055,0.32808 -0.16687,0.18044 -0.361745,0.32808 -0.433055,0.32808 -0.07131,0 -0.266185,0.14763 -0.433055,0.32808 -0.166871,0.18044 -0.370537,0.32808 -0.452592,0.32808 -0.08205,0 -0.21942,0.0984 -0.305255,0.21872 -0.08584,0.12029 -0.231992,0.21871 -0.324791,0.21871 -0.0928,0 -0.238957,0.0984 -0.324792,0.21872 -0.08584,0.1203 -0.231991,0.21872 -0.324791,0.21872 -0.0928,0 -0.238956,0.0984 -0.324792,0.21872 -0.08584,0.1203 -0.242746,0.21872 -0.348691,0.21872 -0.120452,0 -0.192628,0.0819 -0.192628,0.21872 0,0.12752 -0.07218,0.21872 -0.173091,0.21872 -0.0952,0 -0.309621,0.14764 -0.476491,0.32808 -0.166871,0.18044 -0.361746,0.32807 -0.433056,0.32807 -0.07131,0 -0.266185,0.14764 -0.433055,0.32809 -0.16687,0.18044 -0.381291,0.32808 -0.476492,0.32808 -0.100915,0 -0.173091,0.0912 -0.173091,0.21871 0,0.14582 -0.07218,0.21872 -0.216527,0.21872 -0.11909,0 -0.216528,0.0492 -0.216528,0.10937 0,0.0601 -0.08668,0.10935 -0.192627,0.10935 -0.105945,0 -0.262856,0.0984 -0.348692,0.21872 -0.08584,0.1203 -0.242746,0.21872 -0.348691,0.21872 -0.105946,0 -0.192628,0.0492 -0.192628,0.10936 0,0.0601 -0.08668,0.10936 -0.192627,0.10936 -0.105945,0 -0.262856,0.0984 -0.348692,0.21872 -0.08609,0.12065 -0.280261,0.21872 -0.433055,0.21872 -0.152794,0 -0.346967,0.0981 -0.433055,0.21872 -0.108692,0.15233 -0.280262,0.21871 -0.565219,0.21871 -0.33698,0 -0.409155,0.0386 -0.409155,0.21872 0,0.18014 -0.07218,0.21872 -0.409155,0.21872 -0.284958,0 -0.456528,0.0664 -0.56522,0.21873 -0.09165,0.12843 -0.280261,0.21871 -0.456955,0.21871 -0.16549,0 -0.300891,0.0492 -0.300891,0.10936 0,0.0601 -0.09744,0.10936 -0.216528,0.10936 -0.11909,0 -0.216527,0.0492 -0.216527,0.10936 0,0.0601 -0.09744,0.10936 -0.216528,0.10936 -0.11909,0 -0.216528,0.0492 -0.216528,0.10935 0,0.0602 -0.146156,0.10937 -0.324791,0.10937 -0.178635,0 -0.324791,0.0492 -0.324791,0.10936 0,0.0602 -0.09744,0.10936 -0.216528,0.10936 -0.11909,0 -0.216528,0.0492 -0.216528,0.10936 0,0.0601 -0.146156,0.10935 -0.324791,0.10935 -0.178635,0 -0.324791,0.0492 -0.324791,0.10937 0,0.0601 -0.09744,0.10935 -0.216528,0.10935 -0.11909,0 -0.216528,0.0492 -0.216528,0.10937 0,0.0601 -0.146156,0.10936 -0.324791,0.10936 -0.178635,0 -0.324791,0.0492 -0.324791,0.10935 0,0.0602 -0.09744,0.10937 -0.216528,0.10937 -0.11909,0 -0.216528,0.0492 -0.216528,0.10935 0,0.0602 -0.146156,0.10936 -0.324791,0.10936 -0.178635,0 -0.324791,0.0492 -0.324791,0.10936 0,0.0601 -0.194875,0.10936 -0.433056,0.10936 -0.23818,0 -0.433055,0.0492 -0.433055,0.10937 0,0.0601 -0.146156,0.10935 -0.324791,0.10935 -0.178635,0 -0.324792,0.0492 -0.324792,0.10936 0,0.0602 -0.146156,0.10936 -0.324791,0.10936 -0.178635,0 -0.324791,0.0492 -0.324791,0.10936 0,0.0602 -0.194875,0.10936 -0.433056,0.10936 -0.23818,0 -0.433055,0.0492 -0.433055,0.10936 0,0.0601 -0.146156,0.10936 -0.324791,0.10936 -0.178635,0 -0.324792,0.0492 -0.324792,0.10936 0,0.0638 -0.360879,0.10936 -0.86611,0.10936 -0.505231,0 -0.86611,0.0456 -0.86611,0.10935 0,0.0602 -0.146157,0.10937 -0.324792,0.10937 -0.178635,0 -0.324791,0.0492 -0.324791,0.10935 0,0.071 -1.443518,0.10937 -4.114025,0.10937 -2.670507,0 -4.114024,-0.0384 -4.114024,-0.10937 z m 4.114024,-74.58321 c 0,-0.0669 -0.505231,-0.10937 -1.299165,-0.10937 -0.793935,0 -1.299166,-0.0425 -1.299166,-0.10936 0,-0.0657 -0.433055,-0.10935 -1.082638,-0.10935 -0.649583,0 -1.082638,-0.0437 -1.082638,-0.10937 0,-0.0648 -0.396967,-0.10935 -0.974374,-0.10935 -0.577407,0 -0.974374,-0.0446 -0.974374,-0.10937 0,-0.0601 -0.09744,-0.10935 -0.216528,-0.10935 -0.11909,0 -0.216527,-0.0492 -0.216527,-0.10936 0,-0.0602 -0.146156,-0.10937 -0.324792,-0.10937 -0.178635,0 -0.324791,-0.0492 -0.324791,-0.10935 0,-0.0602 -0.09744,-0.10937 -0.216528,-0.10937 -0.11909,0 -0.216527,-0.0492 -0.216527,-0.10935 0,-0.0601 -0.09744,-0.10936 -0.216528,-0.10936 -0.11909,0 -0.216528,-0.0492 -0.216528,-0.10936 0,-0.0601 -0.09744,-0.10936 -0.216527,-0.10936 -0.11909,0 -0.216528,-0.0492 -0.216528,-0.10936 0,-0.0602 -0.126609,-0.10936 -0.281355,-0.10936 -0.173018,0 -0.39818,-0.12633 -0.584755,-0.32808 -0.16687,-0.18045 -0.370537,-0.32808 -0.452592,-0.32808 -0.08206,0 -0.219419,-0.0984 -0.305255,-0.21872 -0.08583,-0.12029 -0.231991,-0.21872 -0.324791,-0.21872 -0.0928,0 -0.238956,-0.0984 -0.324792,-0.21871 -0.08583,-0.12029 -0.2232,-0.21872 -0.305255,-0.21872 -0.08205,0 -0.285721,-0.14764 -0.452591,-0.32808 -0.16687,-0.18045 -0.357275,-0.32809 -0.423122,-0.32809 -0.183601,0 -3.90743,-3.80332 -3.90743,-3.99084 0,-0.0906 -0.07656,-0.16481 -0.170129,-0.16481 -0.197398,0 -0.479454,-0.25631 -0.479454,-0.43569 0,-0.0678 -0.292312,-0.41304 -0.649583,-0.76726 -0.35727,-0.35423 -0.649583,-0.70973 -0.649583,-0.79001 0,-0.0803 -0.09744,-0.21689 -0.216527,-0.30359 -0.127153,-0.0925 -0.216528,-0.28311 -0.216528,-0.46159 0,-0.23102 -0.05194,-0.30393 -0.216527,-0.30393 -0.144352,0 -0.216528,-0.0729 -0.216528,-0.21872 0,-0.1203 -0.04872,-0.21872 -0.108264,-0.21872 -0.05954,0 -0.108264,-0.0876 -0.108264,-0.19457 0,-0.10703 -0.09744,-0.26552 -0.216527,-0.35223 -0.11909,-0.0867 -0.216528,-0.2452 -0.216528,-0.35222 0,-0.12167 -0.08113,-0.19457 -0.216527,-0.19457 -0.164589,0 -0.216528,-0.0729 -0.216528,-0.30395 0,-0.17847 -0.08937,-0.369 -0.216528,-0.46157 -0.127152,-0.0926 -0.216527,-0.2831 -0.216527,-0.46158 0,-0.16717 -0.04872,-0.30394 -0.108264,-0.30394 -0.05954,0 -0.108264,-0.0984 -0.108264,-0.21872 0,-0.1203 -0.04872,-0.21871 -0.108264,-0.21871 -0.05954,0 -0.108263,-0.0984 -0.108263,-0.21872 0,-0.1203 -0.04872,-0.21873 -0.108264,-0.21873 -0.05954,0 -0.108264,-0.0984 -0.108264,-0.21872 0,-0.12029 -0.04872,-0.21872 -0.108264,-0.21872 -0.05954,0 -0.108264,-0.0984 -0.108264,-0.21871 0,-0.12029 -0.04872,-0.21872 -0.108263,-0.21872 -0.05954,0 -0.108264,-0.14764 -0.108264,-0.32808 0,-0.18045 -0.04872,-0.32807 -0.108264,-0.32807 -0.06496,0 -0.108264,-0.43745 -0.108264,-1.0936 0,-0.65617 -0.0433,-1.0936 -0.108264,-1.0936 -0.06985,0 -0.108263,-1.20295 -0.108263,-3.39015 0,-2.18719 0.03842,-3.39014 0.108263,-3.39014 0.05955,0 0.108264,-0.0984 0.108264,-0.21872 0,-0.1203 0.04872,-0.21872 0.108264,-0.21872 0.05954,0 0.108264,-0.19685 0.108264,-0.43744 0,-0.24059 0.04872,-0.43744 0.108264,-0.43744 0.05954,0 0.108263,-0.14763 0.108263,-0.32808 0,-0.18043 0.04872,-0.32807 0.108264,-0.32807 0.05954,0 0.108264,-0.19685 0.108264,-0.43745 0,-0.24059 0.04872,-0.43743 0.108264,-0.43743 0.05954,0 0.108264,-0.18598 0.108264,-0.4133 0,-0.28783 0.06573,-0.46114 0.216527,-0.57094 0.119441,-0.087 0.216528,-0.2831 0.216528,-0.43743 0,-0.15434 0.09709,-0.35048 0.216527,-0.43745 0.119441,-0.087 0.216528,-0.28309 0.216528,-0.43743 0,-0.15435 0.09709,-0.35048 0.216528,-0.43744 0.11909,-0.0867 0.216527,-0.2452 0.216527,-0.35222 0,-0.10701 0.04872,-0.19458 0.108264,-0.19458 0.05954,0 0.108264,-0.0984 0.108264,-0.21871 0,-0.1203 0.04872,-0.21872 0.108264,-0.21872 0.05954,0 0.108263,-0.0984 0.108263,-0.21872 0,-0.1203 0.04872,-0.21873 0.108264,-0.21873 0.05954,0 0.108264,-0.0984 0.108264,-0.21872 0,-0.12029 0.04872,-0.21871 0.108264,-0.21871 0.05954,0 0.108264,-0.0984 0.108264,-0.21872 0,-0.12029 0.04872,-0.21872 0.108263,-0.21872 0.05955,0 0.108264,-0.0876 0.108264,-0.19458 0,-0.10701 0.09744,-0.26551 0.216528,-0.35222 0.11909,-0.0867 0.216527,-0.23434 0.216527,-0.32808 0,-0.0937 0.09744,-0.24137 0.216528,-0.32807 0.11909,-0.0867 0.216528,-0.24521 0.216528,-0.35222 0,-0.10702 0.04872,-0.19458 0.108263,-0.19458 0.05955,0 0.108264,-0.0876 0.108264,-0.19458 0,-0.10701 0.09744,-0.26551 0.216528,-0.35222 0.11909,-0.0867 0.216527,-0.24521 0.216527,-0.35222 0,-0.10702 0.04872,-0.19458 0.108264,-0.19458 0.05954,0 0.108264,-0.0876 0.108264,-0.19458 0,-0.10701 0.09744,-0.26551 0.216528,-0.35222 0.11909,-0.0867 0.216527,-0.2452 0.216527,-0.35222 0,-0.10702 0.04872,-0.19458 0.108264,-0.19458 0.05954,0 0.108264,-0.0984 0.108264,-0.21872 0,-0.12029 0.04872,-0.21871 0.108264,-0.21871 0.05954,0 0.108263,-0.0876 0.108263,-0.19458 0,-0.10702 0.09744,-0.26552 0.216528,-0.35222 0.11909,-0.0867 0.216528,-0.23433 0.216528,-0.32807 0,-0.0937 0.09744,-0.24138 0.216527,-0.32809 0.11909,-0.0867 0.216528,-0.2452 0.216528,-0.35222 0,-0.10701 0.04872,-0.19458 0.108264,-0.19458 0.05954,0 0.108263,-0.0984 0.108263,-0.21871 0,-0.1203 0.04872,-0.21872 0.108264,-0.21872 0.05954,0 0.108264,-0.0876 0.108264,-0.19458 0,-0.10701 0.09744,-0.26551 0.216528,-0.35222 0.127152,-0.0925 0.216527,-0.2831 0.216527,-0.46159 0,-0.23102 0.05194,-0.30393 0.216528,-0.30393 0.164588,0 0.216527,-0.0729 0.216527,-0.30394 0,-0.17847 0.08938,-0.36899 0.216528,-0.46156 0.11909,-0.0867 0.216528,-0.23435 0.216528,-0.32809 0,-0.0937 0.09744,-0.24137 0.216527,-0.32807 0.11909,-0.0867 0.216528,-0.23434 0.216528,-0.32808 0,-0.0937 0.09744,-0.24137 0.216527,-0.32808 0.119091,-0.0867 0.216528,-0.23434 0.216528,-0.32808 0,-0.0937 0.09744,-0.24137 0.216528,-0.32807 0.11909,-0.0867 0.216527,-0.23435 0.216527,-0.32809 0,-0.0937 0.09744,-0.24137 0.216528,-0.32808 0.11909,-0.0867 0.216527,-0.22249 0.216527,-0.30174 0,-0.0793 0.438469,-0.58322 0.974375,-1.119931 0.535905,-0.536707 0.974374,-1.040676 0.974374,-1.119933 0,-0.07925 0.09744,-0.215038 0.216527,-0.301742 0.119091,-0.08671 0.216528,-0.245203 0.216528,-0.35222 0,-0.12167 0.08113,-0.194577 0.216528,-0.194577 0.126239,0 0.216527,-0.07291 0.216527,-0.174844 0,-0.09616 0.146156,-0.312754 0.324792,-0.481314 0.178635,-0.168559 0.324791,-0.38515 0.324791,-0.481314 0,-0.09616 0.04872,-0.174843 0.108264,-0.174843 0.05954,0 0.108264,-0.07592 0.108264,-0.168718 0,-0.09279 0.389749,-0.558201 0.86611,-1.034237 0.476361,-0.476036 0.86611,-0.91732 0.86611,-0.98063 0,-0.18113 2.685466,-2.846954 2.86793,-2.846954 0.09128,0 0.163457,-0.09658 0.163457,-0.218719 0,-0.124207 0.07218,-0.21872 0.167027,-0.21872 0.09187,0 0.552609,-0.393694 1.023875,-0.874876 0.471266,-0.481182 0.921254,-0.874877 0.999974,-0.874877 0.07872,0 0.213356,-0.09843 0.299191,-0.218718 0.08584,-0.120296 0.231992,-0.218719 0.324792,-0.218719 0.0928,0 0.238956,-0.09843 0.324791,-0.21872 0.08583,-0.120295 0.231991,-0.218719 0.324791,-0.218719 0.0928,0 0.238956,-0.09843 0.324792,-0.218718 0.08583,-0.120297 0.231991,-0.21872 0.324791,-0.21872 0.0928,0 0.238956,-0.09843 0.324792,-0.218719 0.08583,-0.120295 0.231991,-0.21872 0.324791,-0.21872 0.0928,0 0.238956,-0.09843 0.324791,-0.218718 0.08584,-0.120296 0.231992,-0.218719 0.324792,-0.218719 0.0928,0 0.238956,-0.09843 0.324791,-0.21872 0.08584,-0.120295 0.231992,-0.218718 0.324792,-0.218718 0.0928,0 0.238956,-0.09843 0.324791,-0.218719 0.08584,-0.120296 0.231991,-0.21872 0.324791,-0.21872 0.0928,0 0.238956,-0.09843 0.324792,-0.218719 0.08584,-0.120295 0.242746,-0.218719 0.348691,-0.218719 0.105945,0 0.192628,-0.04921 0.192628,-0.109359 0,-0.06014 0.09744,-0.10936 0.216527,-0.10936 0.119091,0 0.216528,-0.04921 0.216528,-0.10936 0,-0.06014 0.08668,-0.109359 0.192627,-0.109359 0.105945,0 0.262857,-0.09843 0.348692,-0.21872 0.09165,-0.128439 0.280262,-0.218718 0.456955,-0.218718 0.228716,0 0.300892,-0.05247 0.300892,-0.218719 0,-0.166254 0.07218,-0.21872 0.300891,-0.21872 0.176694,0 0.365309,-0.09028 0.456955,-0.218718 0.08584,-0.120296 0.242747,-0.21872 0.348692,-0.21872 0.105945,0 0.192627,-0.04921 0.192627,-0.109359 0,-0.06014 0.09744,-0.10936 0.216528,-0.10936 0.11909,0 0.216527,-0.04921 0.216527,-0.10936 0,-0.06014 0.09744,-0.109359 0.216528,-0.109359 0.11909,0 0.216528,-0.04921 0.216528,-0.109359 0,-0.06015 0.09744,-0.10936 0.216527,-0.10936 0.11909,0 0.216528,-0.04921 0.216528,-0.109359 0,-0.06014 0.08668,-0.10936 0.192627,-0.10936 0.105945,0 0.262856,-0.09843 0.348692,-0.218719 0.08609,-0.12065 0.280261,-0.21872 0.433055,-0.21872 0.152794,0 0.346967,-0.09807 0.433055,-0.218718 0.08584,-0.120295 0.242747,-0.21872 0.348692,-0.21872 0.105945,0 0.192627,-0.04921 0.192627,-0.109359 0,-0.06014 0.09744,-0.10936 0.216528,-0.10936 0.11909,0 0.216527,-0.04921 0.216527,-0.10936 0,-0.06014 0.09744,-0.109358 0.216528,-0.109358 0.11909,0 0.216528,-0.04921 0.216528,-0.10936 0,-0.06014 0.09744,-0.10936 0.216527,-0.10936 0.11909,0 0.216528,-0.04921 0.216528,-0.109359 0,-0.06014 0.09744,-0.10936 0.216527,-0.10936 0.119091,0 0.216528,-0.04921 0.216528,-0.10936 0,-0.06014 0.09744,-0.109359 0.216528,-0.109359 0.11909,0 0.216527,-0.04921 0.216527,-0.109359 0,-0.06015 0.09744,-0.10936 0.216528,-0.10936 0.11909,0 0.216527,-0.04921 0.216527,-0.10936 0,-0.06014 0.09744,-0.109359 0.216528,-0.109359 0.11909,0 0.216528,-0.04921 0.216528,-0.10936 0,-0.06014 0.09744,-0.10936 0.216527,-0.10936 0.11909,0 0.216528,-0.04921 0.216528,-0.109359 0,-0.06014 0.135401,-0.10936 0.300891,-0.10936 0.176694,0 0.365309,-0.09028 0.456955,-0.218718 0.108692,-0.152329 0.280262,-0.21872 0.56522,-0.21872 0.336979,0 0.409155,-0.03859 0.409155,-0.218719 0,-0.182265 0.07217,-0.218718 0.433055,-0.218718 0.23818,0 0.433055,-0.04921 0.433055,-0.10936 0,-0.06014 0.09744,-0.10936 0.216528,-0.10936 0.11909,0 0.216527,-0.04921 0.216527,-0.10936 0,-0.06014 0.232839,-0.109359 0.517419,-0.109359 0.393221,0 0.554879,-0.0525 0.673483,-0.21872 0.108692,-0.152327 0.280262,-0.218718 0.565219,-0.218718 0.225035,0 0.409155,-0.04921 0.409155,-0.10936 0,-0.06014 0.09744,-0.109359 0.216528,-0.109359 0.11909,0 0.216527,-0.04921 0.216527,-0.10936 0,-0.06014 0.146156,-0.10936 0.324792,-0.10936 0.178635,0 0.324791,-0.04921 0.324791,-0.109359 0,-0.06014 0.146156,-0.10936 0.324792,-0.10936 0.178635,0 0.324791,-0.04921 0.324791,-0.109359 0,-0.06014 0.09744,-0.109359 0.216528,-0.109359 0.11909,0 0.216527,-0.04921 0.216527,-0.10936 0,-0.06014 0.146156,-0.10936 0.324792,-0.10936 0.178635,0 0.324791,-0.04921 0.324791,-0.10936 0,-0.06014 0.146156,-0.109359 0.324791,-0.109359 0.178636,0 0.324792,-0.04921 0.324792,-0.10936 0,-0.06014 0.09744,-0.109359 0.216527,-0.109359 0.119091,0 0.216528,-0.04921 0.216528,-0.109359 0,-0.06014 0.09744,-0.10936 0.216528,-0.10936 0.11909,0 0.216527,-0.04921 0.216527,-0.10936 0,-0.06014 0.09744,-0.109359 0.216528,-0.109359 0.11909,0 0.216527,-0.04921 0.216527,-0.10936 0,-0.06014 0.135401,-0.10936 0.300892,-0.10936 0.176693,0 0.365309,-0.09028 0.456955,-0.218718 0.105753,-0.148209 0.280261,-0.218719 0.541319,-0.218719 0.261057,0 0.435566,-0.07051 0.541319,-0.21872 0.108692,-0.152327 0.280261,-0.218719 0.565219,-0.218719 0.336979,0 0.409155,-0.03859 0.409155,-0.218719 0,-0.182266 0.07218,-0.218719 0.433055,-0.218719 0.238181,0 0.433056,-0.04921 0.433056,-0.10936 0,-0.06014 0.146156,-0.109359 0.324791,-0.109359 0.178635,0 0.324791,-0.04921 0.324791,-0.10936 0,-0.06014 0.194875,-0.109359 0.433056,-0.109359 0.23818,0 0.433055,-0.04921 0.433055,-0.109359 0,-0.06014 0.194875,-0.10936 0.433055,-0.10936 0.23818,0 0.433055,-0.04921 0.433055,-0.10936 0,-0.06014 0.146156,-0.109359 0.324792,-0.109359 0.178635,0 0.324791,-0.04921 0.324791,-0.10936 0,-0.06014 0.146156,-0.10936 0.324791,-0.10936 0.178636,0 0.324792,-0.04921 0.324792,-0.109359 0,-0.06015 0.194875,-0.109359 0.433055,-0.109359 0.23818,0 0.433055,-0.04921 0.433055,-0.10936 0,-0.06014 0.146156,-0.10936 0.324792,-0.10936 0.178635,0 0.324791,-0.04921 0.324791,-0.109359 0,-0.06014 0.243593,-0.10936 0.541319,-0.10936 0.297725,0 0.541319,-0.04921 0.541319,-0.10936 0,-0.06014 0.194875,-0.109359 0.433055,-0.109359 0.23818,0 0.433055,-0.04921 0.433055,-0.109359 0,-0.06076 0.288704,-0.10936 0.649583,-0.10936 0.360879,0 0.649583,-0.04861 0.649583,-0.109359 0,-0.06014 0.194875,-0.10936 0.433055,-0.10936 0.23818,0 0.433055,-0.04921 0.433055,-0.10936 0,-0.06249 0.324792,-0.109359 0.757847,-0.109359 0.433055,0 0.757848,-0.04687 0.757848,-0.10936 0,-0.06076 0.2887,-0.109359 0.64958,-0.109359 0.360882,0 0.649582,-0.04861 0.649582,-0.10936 0,-0.06943 0.83003,-0.109359 2.27354,-0.109359 1.443516,0 2.273536,-0.03992 2.273536,-0.10936 0,-0.06014 0.2436,-0.10936 0.54132,-0.10936 0.29773,0 0.54132,-0.04921 0.54132,-0.109359 0,-0.06627 0.46914,-0.10936 1.1909,-0.10936 0.72176,0 1.1909,-0.04308 1.1909,-0.109359 0,-0.06379 0.36088,-0.109359 0.86611,-0.109359 0.50523,0 0.86611,0.04557 0.86611,0.109359 0,0.06627 0.46915,0.109359 1.19091,0.109359 0.72175,0 1.1909,0.04308 1.1909,0.10936 0,0.06014 0.24359,0.109359 0.54132,0.109359 0.29772,0 0.54132,0.04921 0.54132,0.10936 0,0.06944 0.83002,0.10936 2.27354,0.10936 1.44351,0 2.27354,0.03992 2.27354,0.109359 0,0.06076 0.2887,0.10936 0.64958,0.10936 0.36088,0 0.64958,0.04861 0.64958,0.109359 0,0.0625 0.32479,0.10936 0.75785,0.10936 0.43305,0 0.75784,0.04687 0.75784,0.109359 0,0.06014 0.19488,0.10936 0.43306,0.10936 0.23818,0 0.43305,0.04921 0.43305,0.10936 0,0.06076 0.28871,0.109359 0.64959,0.109359 0.36088,0 0.64958,0.04861 0.64958,0.10936 0,0.06014 0.19487,0.109359 0.43306,0.109359 0.23818,0 0.43305,0.04921 0.43305,0.109359 0,0.06014 0.24359,0.10936 0.54132,0.10936 0.29772,0 0.54132,0.04921 0.54132,0.10936 0,0.06014 0.14615,0.109359 0.32479,0.109359 0.17864,0 0.32479,0.04921 0.32479,0.10936 0,0.06014 0.19488,0.10936 0.43306,0.10936 0.23818,0 0.43305,0.04921 0.43305,0.109359 0,0.06014 0.14616,0.109359 0.32479,0.109359 0.17864,0 0.32479,0.04921 0.32479,0.10936 0,0.06014 0.14616,0.10936 0.3248,0.10936 0.17863,0 0.32479,0.04921 0.32479,0.109359 0,0.06014 0.19487,0.10936 0.43305,0.10936 0.23818,0 0.43306,0.04921 0.43306,0.10936 0,0.06014 0.24359,0.109359 0.54132,0.109359 0.29772,0 0.54132,0.04921 0.54132,0.109359 0,0.06015 0.0974,0.10936 0.21652,0.10936 0.11909,0 0.21653,0.04921 0.21653,0.109359 0,0.06014 0.19488,0.10936 0.43306,0.10936 0.36088,0 0.43305,0.03646 0.43305,0.218719 0,0.180137 0.0722,0.218719 0.40916,0.218719 0.28495,0 0.45652,0.06639 0.56522,0.218719 0.10575,0.148209 0.28026,0.21872 0.54131,0.21872 0.26106,0 0.43557,0.07051 0.54132,0.218719 0.0917,0.128439 0.28026,0.218718 0.45696,0.218718 0.16549,0 0.30089,0.04921 0.30089,0.10936 0,0.06014 0.0974,0.10936 0.21653,0.10936 0.11909,0 0.21653,0.04921 0.21653,0.109359 0,0.06014 0.0974,0.10936 0.21652,0.10936 0.11909,0 0.21653,0.04921 0.21653,0.10936 0,0.06014 0.0974,0.109359 0.21653,0.109359 0.11909,0 0.21653,0.04921 0.21653,0.109359 0,0.06015 0.14615,0.10936 0.32479,0.10936 0.17863,0 0.32479,0.04921 0.32479,0.109359 0,0.06014 0.14615,0.10936 0.32479,0.10936 0.17864,0 0.32479,0.04921 0.32479,0.10936 0,0.06014 0.0974,0.10936 0.21653,0.10936 0.11909,0 0.21653,0.04921 0.21653,0.109359 0,0.06014 0.14615,0.109359 0.32479,0.109359 0.17863,0 0.32479,0.04921 0.32479,0.10936 0,0.06014 0.14616,0.109359 0.32479,0.109359 0.17864,0 0.32479,0.04921 0.32479,0.10936 0,0.06014 0.0974,0.10936 0.21653,0.10936 0.11909,0 0.21653,0.04921 0.21653,0.109359 0,0.06014 0.19487,0.10936 0.43305,0.10936 0.23818,0 0.43306,0.04921 0.43306,0.10936 0,0.06014 0.0974,0.109358 0.21653,0.109358 0.11909,0 0.21652,0.04921 0.21652,0.10936 0,0.06014 0.19488,0.10936 0.43306,0.10936 0.23818,0 0.43305,0.04921 0.43305,0.109359 0,0.06014 0.0974,0.10936 0.21653,0.10936 0.11909,0 0.21653,0.04921 0.21653,0.10936 0,0.06014 0.19487,0.10936 0.43305,0.10936 0.36088,0 0.43306,0.03646 0.43306,0.218718 0,0.180137 0.0722,0.218719 0.40915,0.218719 0.28496,0 0.45653,0.0664 0.56522,0.21872 0.0916,0.128439 0.28026,0.218718 0.45696,0.218718 0.16549,0 0.30089,0.04921 0.30089,0.10936 0,0.06014 0.0974,0.109359 0.21653,0.109359 0.11909,0 0.21652,0.04921 0.21652,0.10936 0,0.06014 0.0974,0.10936 0.21653,0.10936 0.11909,0 0.21653,0.04921 0.21653,0.109359 0,0.06014 0.0974,0.10936 0.21653,0.10936 0.11909,0 0.21653,0.04921 0.21653,0.10936 0,0.06014 0.0974,0.109359 0.21652,0.109359 0.11909,0 0.21653,0.04921 0.21653,0.109359 0,0.06014 0.0974,0.10936 0.21653,0.10936 0.11909,0 0.21653,0.04921 0.21653,0.10936 0,0.06014 0.0974,0.109359 0.21652,0.109359 0.11909,0 0.21653,0.04921 0.21653,0.10936 0,0.06014 0.0974,0.10936 0.21653,0.10936 0.11909,0 0.21653,0.04921 0.21653,0.109358 0,0.06015 0.0974,0.10936 0.21652,0.10936 0.11909,0 0.21653,0.04921 0.21653,0.10936 0,0.06014 0.0867,0.109359 0.19263,0.109359 0.10594,0 0.26285,0.09843 0.34869,0.21872 0.0861,0.12065 0.28026,0.218718 0.43306,0.218718 0.15279,0 0.34696,0.09807 0.43305,0.21872 0.0858,0.120295 0.24275,0.218719 0.34869,0.218719 0.10595,0 0.19263,0.04921 0.19263,0.10936 0,0.06014 0.0974,0.109359 0.21653,0.109359 0.11909,0 0.21652,0.04921 0.21652,0.10936 0,0.06014 0.0974,0.109359 0.21653,0.109359 0.11909,0 0.21653,0.04921 0.21653,0.109359 0,0.06014 0.0974,0.10936 0.21653,0.10936 0.11909,0 0.21653,0.04921 0.21653,0.10936 0,0.06014 0.0867,0.109359 0.19262,0.109359 0.10595,0 0.26286,0.09843 0.34869,0.21872 0.0917,0.128439 0.28027,0.218718 0.45696,0.218718 0.22871,0 0.30089,0.05247 0.30089,0.21872 0,0.166253 0.0722,0.218719 0.30089,0.218719 0.1767,0 0.36531,0.09028 0.45696,0.218718 0.0858,0.120297 0.24274,0.21872 0.34869,0.21872 0.10594,0 0.19263,0.04921 0.19263,0.109359 0,0.06014 0.0974,0.10936 0.21652,0.10936 0.11909,0 0.21653,0.04921 0.21653,0.10936 0,0.06014 0.0867,0.109359 0.19263,0.109359 0.10594,0 0.26286,0.09843 0.34869,0.218719 0.0858,0.120296 0.23199,0.218719 0.32479,0.218719 0.0928,0 0.23896,0.09843 0.32479,0.21872 0.0858,0.120295 0.23199,0.218719 0.32479,0.218719 0.0928,0 0.23896,0.09843 0.3248,0.218718 0.0858,0.120297 0.23199,0.21872 0.32479,0.21872 0.0928,0 0.23895,0.09843 0.32479,0.218719 0.0858,0.120295 0.23199,0.218718 0.32479,0.218718 0.0928,0 0.23896,0.09843 0.32479,0.21872 0.0858,0.120295 0.23199,0.218719 0.32479,0.218719 0.0928,0 0.23896,0.09843 0.32479,0.21872 0.0858,0.120295 0.232,0.218718 0.3248,0.218718 0.0928,0 0.23895,0.09843 0.32479,0.218719 0.0858,0.120296 0.23199,0.21872 0.32479,0.21872 0.0928,0 0.23895,0.09843 0.32479,0.218719 0.0858,0.120295 0.22047,0.218718 0.29919,0.218718 0.0787,0 0.52871,0.393695 0.99998,0.874877 0.47126,0.481182 0.93201,0.874876 1.02387,0.874876 0.0949,0 0.16703,0.09452 0.16703,0.21872 0,0.122142 0.0722,0.218719 0.16345,0.218719 0.18247,0 2.86793,2.665824 2.86793,2.846954 0,0.06332 0.38975,0.504594 0.86611,0.98063 0.47637,0.476036 0.86611,0.941443 0.86611,1.034237 0,0.09279 0.0487,0.168718 0.10827,0.168718 0.0595,0 0.10826,0.07868 0.10826,0.174843 0,0.09616 0.14616,0.312755 0.32479,0.481314 0.17864,0.16856 0.3248,0.385151 0.3248,0.481314 0,0.101938 0.0903,0.174844 0.21652,0.174844 0.1354,0 0.21653,0.07291 0.21653,0.194577 0,0.107017 0.0974,0.265517 0.21653,0.35222 0.11909,0.0867 0.21653,0.224113 0.21653,0.305353 0,0.200274 0.27078,0.460168 0.47945,0.460168 0.0979,0 0.17013,0.09283 0.17013,0.218712 0,0.145821 0.0722,0.218721 0.21653,0.218721 0.12507,0 0.21652,0.07293 0.21652,0.172609 0,0.09495 0.19488,0.361743 0.43306,0.592913 0.23818,0.23115 0.43305,0.4871 0.43305,0.56876 0,0.0816 0.0974,0.21941 0.21653,0.30611 0.11909,0.0867 0.21653,0.23435 0.21653,0.32808 0,0.0937 0.0974,0.24138 0.21653,0.32809 0.11909,0.0867 0.21652,0.23434 0.21652,0.32807 0,0.0937 0.0974,0.24137 0.21653,0.32808 0.11909,0.0867 0.21653,0.23434 0.21653,0.32808 0,0.0937 0.0974,0.24138 0.21653,0.32808 0.11909,0.0867 0.21652,0.23433 0.21652,0.32807 0,0.0937 0.0974,0.24138 0.21653,0.32809 0.12715,0.0925 0.21653,0.28309 0.21653,0.46156 0,0.23104 0.0519,0.30394 0.21653,0.30394 0.16459,0 0.21653,0.0729 0.21653,0.30393 0,0.17849 0.0894,0.36901 0.21652,0.46159 0.11909,0.0867 0.21653,0.24521 0.21653,0.35222 0,0.10702 0.0487,0.19458 0.10826,0.19458 0.0596,0 0.10827,0.0984 0.10827,0.21872 0,0.12029 0.0487,0.21871 0.10826,0.21871 0.0596,0 0.10827,0.0876 0.10827,0.19458 0,0.10702 0.0974,0.26552 0.21652,0.35222 0.11909,0.0867 0.21653,0.23435 0.21653,0.32809 0,0.0937 0.0974,0.24136 0.21653,0.32807 0.11909,0.0867 0.21653,0.2452 0.21653,0.35222 0,0.10701 0.0487,0.19458 0.10826,0.19458 0.0595,0 0.10826,0.0984 0.10826,0.21871 0,0.1203 0.0487,0.21872 0.10827,0.21872 0.0595,0 0.10826,0.0876 0.10826,0.19458 0,0.10702 0.0974,0.26552 0.21653,0.35222 0.11909,0.0867 0.21653,0.24521 0.21653,0.35222 0,0.10702 0.0487,0.19458 0.10826,0.19458 0.0596,0 0.10826,0.0876 0.10826,0.19458 0,0.10701 0.0974,0.26551 0.21653,0.35222 0.11909,0.0867 0.21653,0.24521 0.21653,0.35222 0,0.10702 0.0487,0.19458 0.10826,0.19458 0.0596,0 0.10827,0.0876 0.10827,0.19458 0,0.10701 0.0974,0.26551 0.21652,0.35222 0.11909,0.0867 0.21653,0.23433 0.21653,0.32807 0,0.0937 0.0974,0.24138 0.21653,0.32808 0.11909,0.0867 0.21653,0.24521 0.21653,0.35222 0,0.10702 0.0487,0.19458 0.10826,0.19458 0.0596,0 0.10826,0.0876 0.10826,0.19458 0,0.10701 0.0974,0.26552 0.21653,0.35222 0.11944,0.087 0.21653,0.28309 0.21653,0.43744 0,0.15434 0.0971,0.35047 0.21653,0.43743 0.11944,0.087 0.21653,0.2831 0.21653,0.43745 0,0.15433 0.0971,0.35047 0.21652,0.43743 0.11944,0.087 0.21653,0.28309 0.21653,0.43744 0,0.15434 0.0971,0.35048 0.21653,0.43743 0.11944,0.087 0.21653,0.28311 0.21653,0.43745 0,0.15433 0.0971,0.35048 0.21652,0.43743 0.1508,0.1098 0.21653,0.28311 0.21653,0.57094 0,0.22732 0.0487,0.4133 0.10826,0.4133 0.0596,0 0.10827,0.19684 0.10827,0.43743 0,0.2406 0.0487,0.43745 0.10826,0.43745 0.0596,0 0.10827,0.14764 0.10827,0.32807 0,0.18045 0.0487,0.32808 0.10826,0.32808 0.0595,0 0.10826,0.19685 0.10826,0.43744 0,0.24059 0.0487,0.43744 0.10827,0.43744 0.0595,0 0.10826,0.0984 0.10826,0.21872 0,0.12029 0.0487,0.21872 0.10826,0.21872 0.0699,0 0.10827,1.23941 0.10827,3.4995 0,2.2601 -0.0383,3.49951 -0.10827,3.49951 -0.0641,0 -0.10826,0.40098 -0.10826,0.98423 0,0.58326 -0.0441,0.98425 -0.10826,0.98425 -0.0596,0 -0.10827,0.14762 -0.10827,0.32807 0,0.18044 -0.0487,0.32808 -0.10826,0.32808 -0.0596,0 -0.10826,0.0984 -0.10826,0.21872 0,0.1203 -0.0487,0.21871 -0.10827,0.21871 -0.0595,0 -0.10826,0.0984 -0.10826,0.21872 0,0.1203 -0.0487,0.21872 -0.10827,0.21872 -0.0595,0 -0.10826,0.0984 -0.10826,0.21873 0,0.12029 -0.0487,0.21872 -0.10826,0.21872 -0.0596,0 -0.10827,0.0984 -0.10827,0.21871 0,0.12029 -0.0487,0.21872 -0.10826,0.21872 -0.0596,0 -0.10826,0.13677 -0.10826,0.30394 0,0.17848 -0.0894,0.369 -0.21653,0.46158 -0.12715,0.0925 -0.21653,0.2831 -0.21653,0.46157 0,0.23104 -0.0519,0.30395 -0.21653,0.30395 -0.13539,0 -0.21652,0.0729 -0.21652,0.19457 0,0.10702 -0.0974,0.26552 -0.21653,0.35222 -0.11909,0.0867 -0.21653,0.27467 -0.21653,0.4177 0,0.14796 -0.14002,0.39219 -0.32479,0.56654 -0.17864,0.16856 -0.32479,0.37429 -0.32479,0.45717 0,0.0829 -0.0974,0.22164 -0.21653,0.30835 -0.11909,0.0867 -0.21653,0.22332 -0.21653,0.30359 0,0.0803 -0.29231,0.43578 -0.64958,0.79001 -0.35727,0.35422 -0.64958,0.69627 -0.64958,0.76011 0,0.15467 -4.40385,4.59849 -4.55713,4.59849 -0.0658,0 -0.25614,0.14764 -0.42301,0.32809 -0.16687,0.18044 -0.37053,0.32808 -0.45259,0.32808 -0.0821,0 -0.21942,0.0984 -0.30526,0.21872 -0.0858,0.1203 -0.23199,0.21871 -0.32479,0.21871 -0.0928,0 -0.23895,0.0984 -0.32479,0.21872 -0.0858,0.1203 -0.24274,0.21872 -0.34869,0.21872 -0.12045,0 -0.19263,0.0819 -0.19263,0.21873 0,0.14581 -0.0722,0.21871 -0.21652,0.21871 -0.11909,0 -0.21653,0.0492 -0.21653,0.10936 0,0.0601 -0.14616,0.10936 -0.32479,0.10936 -0.17864,0 -0.32479,0.0492 -0.32479,0.10936 0,0.0601 -0.0974,0.10936 -0.21653,0.10936 -0.11909,0 -0.21653,0.0492 -0.21653,0.10936 0,0.0602 -0.0974,0.10936 -0.21653,0.10936 -0.11909,0 -0.21653,0.0492 -0.21653,0.10936 0,0.0601 -0.0974,0.10935 -0.21652,0.10935 -0.11909,0 -0.21653,0.0492 -0.21653,0.10937 0,0.0601 -0.14616,0.10935 -0.32479,0.10935 -0.17864,0 -0.32479,0.0492 -0.32479,0.10937 0,0.0601 -0.0974,0.10936 -0.21653,0.10936 -0.11909,0 -0.21653,0.0492 -0.21653,0.10935 0,0.0638 -0.36088,0.10937 -0.86611,0.10937 -0.50523,0 -0.86611,0.0455 -0.86611,0.10935 0,0.0663 -0.46914,0.10937 -1.1909,0.10937 -0.72176,0 -1.1909,0.043 -1.1909,0.10935 0,0.0669 -0.50523,0.10936 -1.29917,0.10936 -0.79393,0 -1.29916,0.0425 -1.29916,0.10937 0,0.0625 -0.3248,0.10935 -0.75785,0.10935 -0.43306,0 -0.75785,-0.0469 -0.75785,-0.10935 0,-0.0602 -0.19487,-0.10937 -0.43305,-0.10937 -0.23818,0 -0.43306,-0.0492 -0.43306,-0.10936 0,-0.0608 -0.2887,-0.10935 -0.64958,-0.10935 -0.36088,0 -0.64958,-0.0486 -0.64958,-0.10937 0,-0.0607 -0.28871,-0.10935 -0.64959,-0.10935 -0.36088,0 -0.64958,-0.0486 -0.64958,-0.10937 0,-0.0601 -0.0974,-0.10935 -0.21653,-0.10935 -0.11909,0 -0.21652,-0.0492 -0.21652,-0.10936 0,-0.0602 -0.2436,-0.10937 -0.54132,-0.10937 -0.29773,0 -0.54132,-0.0492 -0.54132,-0.10935 0,-0.0602 -0.0974,-0.10937 -0.21653,-0.10937 -0.11909,0 -0.21653,-0.0492 -0.21653,-0.10935 0,-0.0601 -0.24359,-0.10936 -0.54132,-0.10936 -0.29772,0 -0.54132,-0.0492 -0.54132,-0.10936 0,-0.0601 -0.14615,-0.10936 -0.32479,-0.10936 -0.17863,0 -0.32479,-0.0492 -0.32479,-0.10936 0,-0.0602 -0.0974,-0.10936 -0.21653,-0.10936 -0.11909,0 -0.21652,-0.0492 -0.21652,-0.10936 0,-0.0602 -0.0867,-0.10936 -0.19263,-0.10936 -0.10595,0 -0.26286,-0.0984 -0.34869,-0.21871 -0.0858,-0.1203 -0.23199,-0.21873 -0.32479,-0.21873 -0.0928,0 -0.23896,-0.0984 -0.3248,-0.21872 -0.0858,-0.12029 -0.24274,-0.21872 -0.34869,-0.21872 -0.10594,0 -0.19262,-0.0492 -0.19262,-0.10935 0,-0.0602 -0.0974,-0.10936 -0.21653,-0.10936 -0.11909,0 -0.21653,-0.0492 -0.21653,-0.10937 0,-0.0601 -0.0867,-0.10935 -0.19263,-0.10935 -0.10594,0 -0.26285,-0.0984 -0.34869,-0.21872 -0.0858,-0.1203 -0.24274,-0.21872 -0.34869,-0.21872 -0.10594,0 -0.19263,-0.0492 -0.19263,-0.10936 0,-0.0602 -0.0867,-0.10937 -0.19262,-0.10937 -0.10595,0 -0.26286,-0.0984 -0.3487,-0.21871 -0.0858,-0.12029 -0.24274,-0.21872 -0.34869,-0.21872 -0.10594,0 -0.19263,-0.0492 -0.19263,-0.10935 0,-0.0602 -0.0867,-0.10937 -0.19262,-0.10937 -0.10595,0 -0.26286,-0.0984 -0.34869,-0.21872 -0.0858,-0.1203 -0.24275,-0.21871 -0.3487,-0.21871 -0.10594,0 -0.19262,-0.0492 -0.19262,-0.10937 0,-0.0601 -0.0867,-0.10935 -0.19263,-0.10935 -0.10595,0 -0.26286,-0.0984 -0.34869,-0.21872 -0.0858,-0.1203 -0.22074,-0.21873 -0.29979,-0.21873 -0.079,0 -0.48005,-0.34448 -0.89111,-0.76551 -0.41107,-0.42103 -0.80229,-0.76552 -0.86938,-0.76552 -0.0671,0 -0.30921,-0.19685 -0.53805,-0.43744 -0.22885,-0.24059 -0.49298,-0.43743 -0.58697,-0.43743 -0.0987,0 -0.17088,-0.0924 -0.17088,-0.21872 0,-0.13677 -0.0722,-0.21872 -0.19263,-0.21872 -0.10594,0 -0.26285,-0.0984 -0.34869,-0.21873 -0.0858,-0.12029 -0.22221,-0.21871 -0.30305,-0.21871 -0.0808,0 -0.33422,-0.19685 -0.56306,-0.43744 -0.22884,-0.24059 -0.49298,-0.43743 -0.58696,-0.43743 -0.0987,0 -0.17089,-0.0924 -0.17089,-0.21872 0,-0.14581 -0.0722,-0.21873 -0.21652,-0.21873 -0.14436,0 -0.21653,-0.0729 -0.21653,-0.21872 0,-0.14581 -0.0722,-0.21872 -0.21653,-0.21872 -0.12238,0 -0.21653,-0.0729 -0.21653,-0.16768 0,-0.21767 -0.70114,-0.9259 -0.91663,-0.9259 -0.0938,0 -0.166,-0.0951 -0.166,-0.21873 0,-0.14581 -0.0722,-0.21872 -0.21653,-0.21872 -0.14435,0 -0.21653,-0.0729 -0.21653,-0.21872 0,-0.14581 -0.0722,-0.21871 -0.21653,-0.21871 -0.14435,0 -0.21652,-0.0729 -0.21652,-0.21872 0,-0.12555 -0.0722,-0.21872 -0.16943,-0.21872 -0.0932,0 -0.40669,-0.24606 -0.69669,-0.5468 -0.28999,-0.30073 -0.6035,-0.5468 -0.69668,-0.5468 -0.0973,0 -0.16943,-0.0931 -0.16943,-0.21872 0,-0.12554 -0.0722,-0.21871 -0.16942,-0.21871 -0.0932,0 -0.40669,-0.24607 -0.69669,-0.5468 -0.28999,-0.30074 -0.6035,-0.5468 -0.69668,-0.5468 -0.0973,0 -0.16943,-0.0931 -0.16943,-0.21872 0,-0.12634 -0.0722,-0.21872 -0.17088,-0.21872 -0.094,0 -0.35812,-0.19684 -0.58696,-0.43743 -0.22885,-0.2406 -0.48222,-0.43745 -0.56307,-0.43745 -0.0808,0 -0.21721,-0.0984 -0.30304,-0.21872 -0.0858,-0.12029 -0.23199,-0.21871 -0.32479,-0.21871 -0.0928,0 -0.23896,-0.0984 -0.3248,-0.21872 -0.0858,-0.1203 -0.23199,-0.21872 -0.32479,-0.21872 -0.0928,0 -0.23895,-0.0984 -0.32479,-0.21872 -0.0858,-0.1203 -0.24275,-0.21873 -0.34869,-0.21873 -0.10595,0 -0.19263,-0.0492 -0.19263,-0.10935 0,-0.0601 -0.0974,-0.10936 -0.21653,-0.10936 -0.11909,0 -0.21652,-0.0492 -0.21652,-0.10936 0,-0.0601 -0.0867,-0.10936 -0.19263,-0.10936 -0.10595,0 -0.26286,-0.0984 -0.34869,-0.21872 -0.0861,-0.12065 -0.28026,-0.21872 -0.43306,-0.21872 -0.15279,0 -0.34696,-0.0981 -0.43305,-0.21871 -0.0861,-0.12066 -0.28026,-0.21872 -0.43306,-0.21872 -0.15279,0 -0.34696,-0.0981 -0.43305,-0.21873 -0.0858,-0.12029 -0.24275,-0.21872 -0.34869,-0.21872 -0.10595,0 -0.19263,-0.0492 -0.19263,-0.10935 0,-0.0602 -0.0974,-0.10937 -0.21653,-0.10937 -0.11909,0 -0.21653,-0.0492 -0.21653,-0.10935 0,-0.0601 -0.0974,-0.10936 -0.21652,-0.10936 -0.11909,0 -0.21653,-0.0492 -0.21653,-0.10937 0,-0.0601 -0.0974,-0.10935 -0.21653,-0.10935 -0.11909,0 -0.21653,-0.0492 -0.21653,-0.10936 0,-0.0602 -0.0974,-0.10936 -0.21653,-0.10936 -0.11909,0 -0.21652,-0.0492 -0.21652,-0.10936 0,-0.0602 -0.2436,-0.10936 -0.54132,-0.10936 -0.29773,0 -0.54132,-0.0492 -0.54132,-0.10936 0,-0.0601 -0.0974,-0.10936 -0.21653,-0.10936 -0.11909,0 -0.21653,-0.0492 -0.21653,-0.10936 0,-0.0601 -0.24359,-0.10936 -0.54131,-0.10936 -0.29773,0 -0.54132,-0.0492 -0.54132,-0.10936 0,-0.0601 -0.0974,-0.10936 -0.21653,-0.10936 -0.11909,0 -0.21653,-0.0492 -0.21653,-0.10935 0,-0.0601 -0.24359,-0.10937 -0.54132,-0.10937 -0.29772,0 -0.54132,-0.0492 -0.54132,-0.10936 0,-0.0602 -0.14615,-0.10935 -0.32479,-0.10935 -0.17863,0 -0.32479,-0.0492 -0.32479,-0.10937 0,-0.0601 -0.19487,-0.10935 -0.43306,-0.10935 -0.23818,0 -0.43305,-0.0492 -0.43305,-0.10937 0,-0.0601 -0.14616,-0.10935 -0.32479,-0.10935 -0.17864,0 -0.32479,-0.0492 -0.32479,-0.10936 0,-0.0602 -0.19488,-0.10936 -0.43306,-0.10936 -0.23818,0 -0.43305,-0.0492 -0.43305,-0.10936 0,-0.0699 -0.93829,-0.10937 -2.59833,-0.10937 -1.66005,0 -2.59834,-0.0395 -2.59834,-0.10935 0,-0.0638 -0.36088,-0.10936 -0.86611,-0.10936 -0.50523,0 -0.86611,0.0456 -0.86611,0.10936 0,0.0699 -0.93828,0.10935 -2.59833,0.10935 -1.66004,0 -2.598326,0.0395 -2.598326,0.10937 0,0.0601 -0.19487,0.10936 -0.43305,0.10936 -0.23818,0 -0.43306,0.0492 -0.43306,0.10936 0,0.0601 -0.14615,0.10936 -0.32479,0.10936 -0.17863,0 -0.32479,0.0492 -0.32479,0.10935 0,0.0602 -0.19488,0.10937 -0.43306,0.10937 -0.23818,0 -0.43305,0.0492 -0.43305,0.10935 0,0.0602 -0.14616,0.10937 -0.32479,0.10937 -0.17864,0 -0.32479,0.0492 -0.32479,0.10935 0,0.0601 -0.243602,0.10936 -0.541322,0.10936 -0.29773,0 -0.54132,0.0492 -0.54132,0.10937 0,0.0601 -0.0974,0.10935 -0.216529,0.10935 -0.11909,0 -0.216528,0.0492 -0.216528,0.10936 0,0.0602 -0.243593,0.10936 -0.541319,0.10936 -0.297725,0 -0.541319,0.0492 -0.541319,0.10936 0,0.0602 -0.09744,0.10936 -0.216527,0.10936 -0.11909,0 -0.216528,0.0492 -0.216528,0.10936 0,0.0602 -0.243593,0.10936 -0.541319,0.10936 -0.297725,0 -0.541319,0.0492 -0.541319,0.10936 0,0.0601 -0.09744,0.10936 -0.216527,0.10936 -0.119091,0 -0.216528,0.0492 -0.216528,0.10936 0,0.0601 -0.09744,0.10936 -0.216528,0.10936 -0.11909,0 -0.216527,0.0492 -0.216527,0.10935 0,0.0602 -0.09744,0.10937 -0.216528,0.10937 -0.11909,0 -0.216527,0.0492 -0.216527,0.10936 0,0.0602 -0.09744,0.10935 -0.216528,0.10935 -0.11909,0 -0.216528,0.0492 -0.216528,0.10937 0,0.0601 -0.08668,0.10935 -0.192627,0.10935 -0.105945,0 -0.262856,0.0984 -0.348692,0.21872 -0.08609,0.12065 -0.280261,0.21873 -0.433055,0.21873 -0.152794,0 -0.346967,0.0981 -0.433055,0.21872 -0.08609,0.12065 -0.280262,0.21871 -0.433055,0.21871 -0.152794,0 -0.346967,0.0981 -0.433055,0.21872 -0.08584,0.1203 -0.242747,0.21872 -0.348692,0.21872 -0.105945,0 -0.192627,0.0492 -0.192627,0.10936 0,0.0602 -0.09744,0.10936 -0.216528,0.10936 -0.11909,0 -0.216528,0.0492 -0.216528,0.10936 0,0.0602 -0.08668,0.10935 -0.192627,0.10935 -0.105945,0 -0.262856,0.0984 -0.348692,0.21873 -0.08583,0.12029 -0.231991,0.21872 -0.324791,0.21872 -0.0928,0 -0.238956,0.0984 -0.324791,0.21872 -0.08584,0.12029 -0.231992,0.21872 -0.324792,0.21872 -0.0928,0 -0.238956,0.0984 -0.324791,0.21871 -0.08584,0.1203 -0.222207,0.21872 -0.303048,0.21872 -0.08084,0 -0.334219,0.19685 -0.563063,0.43745 -0.228843,0.24059 -0.492977,0.43743 -0.586963,0.43743 -0.09871,0 -0.170883,0.0924 -0.170883,0.21872 0,0.12555 -0.07218,0.21872 -0.169425,0.21872 -0.09318,0 -0.406692,0.24606 -0.696686,0.5468 -0.289993,0.30073 -0.603502,0.5468 -0.696685,0.5468 -0.09725,0 -0.169425,0.0931 -0.169425,0.21871 0,0.12555 -0.07218,0.21872 -0.169425,0.21872 -0.09318,0 -0.406692,0.24607 -0.696685,0.5468 -0.289994,0.30074 -0.603503,0.5468 -0.696686,0.5468 -0.09725,0 -0.169425,0.0931 -0.169425,0.21872 0,0.14581 -0.07218,0.21872 -0.216527,0.21872 -0.144352,0 -0.216528,0.0729 -0.216528,0.21871 0,0.14581 -0.07218,0.21872 -0.216528,0.21872 -0.144351,0 -0.216527,0.0729 -0.216527,0.21872 0,0.12362 -0.07218,0.21873 -0.166005,0.21873 -0.215488,0 -0.916633,0.70823 -0.916633,0.9259 0,0.0948 -0.09414,0.16768 -0.216528,0.16768 -0.144352,0 -0.216527,0.0729 -0.216527,0.21872 0,0.14581 -0.07218,0.21872 -0.216528,0.21872 -0.144352,0 -0.216528,0.0729 -0.216528,0.21873 0,0.12633 -0.07218,0.21872 -0.170883,0.21872 -0.09399,0 -0.35812,0.19684 -0.586963,0.43743 -0.228844,0.24059 -0.482222,0.43744 -0.563063,0.43744 -0.08084,0 -0.217212,0.0984 -0.303048,0.21871 -0.08583,0.1203 -0.242746,0.21873 -0.348691,0.21873 -0.120452,0 -0.192628,0.0819 -0.192628,0.21872 0,0.12633 -0.07218,0.21872 -0.170883,0.21872 -0.09399,0 -0.35812,0.19684 -0.586963,0.43743 -0.228844,0.24059 -0.470702,0.43744 -0.537463,0.43744 -0.06676,0 -0.506964,0.3937 -0.97823,0.87488 -0.471267,0.48118 -0.93201,0.87488 -1.023875,0.87488 -0.09186,0 -0.167027,0.0492 -0.167027,0.10935 0,0.0602 -0.09744,0.10937 -0.216528,0.10937 -0.11909,0 -0.216527,0.0492 -0.216527,0.10935 0,0.0602 -0.08668,0.10937 -0.192628,0.10937 -0.105945,0 -0.262856,0.0984 -0.348691,0.21871 -0.08584,0.12029 -0.242747,0.21872 -0.348692,0.21872 -0.105945,0 -0.192627,0.0492 -0.192627,0.10937 0,0.0601 -0.08668,0.10935 -0.192628,0.10935 -0.105945,0 -0.262856,0.0984 -0.348691,0.21872 -0.08584,0.1203 -0.242747,0.21871 -0.348692,0.21871 -0.105945,0 -0.192627,0.0492 -0.192627,0.10937 0,0.0601 -0.08668,0.10936 -0.192628,0.10936 -0.105945,0 -0.262856,0.0984 -0.348691,0.21872 -0.08584,0.12029 -0.242747,0.21872 -0.348692,0.21872 -0.105945,0 -0.192627,0.0492 -0.192627,0.10935 0,0.0602 -0.09744,0.10937 -0.216528,0.10937 -0.11909,0 -0.216528,0.0492 -0.216528,0.10936 0,0.0601 -0.08668,0.10935 -0.192627,0.10935 -0.105945,0 -0.262856,0.0984 -0.348692,0.21872 -0.08584,0.1203 -0.231991,0.21872 -0.324791,0.21872 -0.0928,0 -0.238956,0.0984 -0.324791,0.21873 -0.08584,0.12029 -0.242747,0.21871 -0.348692,0.21871 -0.105945,0 -0.192627,0.0492 -0.192627,0.10936 0,0.0601 -0.09744,0.10936 -0.216528,0.10936 -0.11909,0 -0.216528,0.0492 -0.216528,0.10936 0,0.0601 -0.146156,0.10936 -0.324791,0.10936 -0.178635,0 -0.324791,0.0492 -0.324791,0.10936 0,0.0602 -0.243594,0.10936 -0.541319,0.10936 -0.297726,0 -0.541319,0.0492 -0.541319,0.10936 0,0.0601 -0.09744,0.10935 -0.216528,0.10935 -0.11909,0 -0.216528,0.0492 -0.216528,0.10937 0,0.0601 -0.243593,0.10935 -0.541319,0.10935 -0.297725,0 -0.541319,0.0492 -0.541319,0.10937 0,0.0601 -0.09744,0.10936 -0.216527,0.10936 -0.11909,0 -0.216528,0.0492 -0.216528,0.10935 0,0.0607 -0.288703,0.10937 -0.649583,0.10937 -0.360879,0 -0.649582,0.0486 -0.649582,0.10935 0,0.0607 -0.288704,0.10937 -0.649583,0.10937 -0.36088,0 -0.649583,0.0486 -0.649583,0.10935 0,0.0601 -0.194875,0.10936 -0.433055,0.10936 -0.238181,0 -0.433055,0.0492 -0.433055,0.10937 0,0.0625 -0.324792,0.10935 -0.757847,0.10935 -0.433055,0 -0.757847,-0.0469 -0.757847,-0.10935 z"
       id="path1" /></g></svg>
